<?xml version="1.0" encoding="utf-8"?>
<!-- Generator: Adobe Illustrator 26.0.0, SVG Export Plug-In . SVG Version: 6.00 Build 0)  -->
<svg version="1.1" id="Calque_1" xmlns="http://www.w3.org/2000/svg" xmlns:xlink="http://www.w3.org/1999/xlink" x="0px" y="0px"
	 viewBox="0 0 24 24" style="enable-background:new 0 0 24 24;" xml:space="preserve">
<style type="text/css">
	.st0{fill:#E2E0E0;stroke:#FFFFFF;stroke-miterlimit:10;}
</style>
<path class="st0" d="M6.9,1.2c-3.4,0-6.1,2.7-6.1,6.1v9.8c0,3.4,2.7,6.1,6.1,6.1h9.8c3.4,0,6.1-2.7,6.1-6.1V7.4
	c0-3.4-2.7-6.1-6.1-6.1H6.9z M6.9,3.7h9.8c2.1,0,3.7,1.6,3.7,3.7v9.8c0,2.1-1.6,3.7-3.7,3.7H6.9c-2.1,0-3.7-1.6-3.7-3.7V7.4
	C3.2,5.3,4.8,3.7,6.9,3.7z M17.9,4.9c-0.7,0-1.2,0.5-1.2,1.2s0.5,1.2,1.2,1.2s1.2-0.5,1.2-1.2S18.6,4.9,17.9,4.9z M11.8,6.1
	c-3.4,0-6.1,2.7-6.1,6.1s2.7,6.1,6.1,6.1s6.1-2.7,6.1-6.1S15.2,6.1,11.8,6.1z M11.8,8.6c2.1,0,3.7,1.6,3.7,3.7s-1.6,3.7-3.7,3.7
	s-3.7-1.6-3.7-3.7S9.7,8.6,11.8,8.6z"/>
</svg>
