<svg id="Calque_1" data-name="Calque 1" xmlns="http://www.w3.org/2000/svg" xmlns:xlink="http://www.w3.org/1999/xlink" viewBox="0 0 372.98 161.81"><defs><style>.cls-1{fill:#003547;}.cls-1,.cls-10,.cls-14,.cls-15,.cls-2,.cls-3,.cls-4,.cls-5,.cls-6,.cls-7,.cls-8{fill-rule:evenodd;}.cls-2,.cls-3{fill:#024676;}.cls-3,.cls-5,.cls-7{opacity:0.8;}.cls-11,.cls-4{fill:#fff;}.cls-5{fill:#fcfdfb;}.cls-6{fill:#004777;}.cls-7{fill:#045f92;}.cls-8{fill:#004c77;}.cls-9{fill:url(#linear-gradient);}.cls-10{fill:#a7cfe5;}.cls-12{fill:url(#linear-gradient-2);}.cls-13{fill:url(#linear-gradient-3);}.cls-14{fill:#0f2538;}.cls-15,.cls-16{fill:#14304c;}.cls-17{font-size:47.06px;fill:#36a9e1;font-family:NEONLEDLightRegular, NEON LED Light;}</style><linearGradient id="linear-gradient" x1="314.82" y1="484.45" x2="307.02" y2="449.81" gradientUnits="userSpaceOnUse"><stop offset="0.01" stop-color="#bce2f4"/><stop offset="0.33" stop-color="#e1f2f7"/><stop offset="1" stop-color="#fff"/></linearGradient><linearGradient id="linear-gradient-2" x1="329.38" y1="501.5" x2="327.06" y2="491.18" xlink:href="#linear-gradient"/><linearGradient id="linear-gradient-3" x1="288.08" y1="490.86" x2="286.26" y2="482.79" xlink:href="#linear-gradient"/></defs><path class="cls-1" d="M179.19,510.93a7.6,7.6,0,0,0,1.13.05,18.55,18.55,0,0,0,3.19-.39,25,25,0,0,0,4.88-1.57c.76-.68-.41-1.42,6.26-3.53.64-.24.94-1,1.47-1.22,1.9-.87,3.32-1.36,3.11-2.85.77-1.57,1.51-2.54,2.61-2.78,2-2.5,2.16-1.65,3.09-.75a22.11,22.11,0,0,1,4.4,1.44c.59.23.94.29,1.63.59.27.12.43-.28.8.35s1.77.75,2,.83c5.76,2.33,7.11,2,14.56,3.48a93.33,93.33,0,0,0,16.37,1.81s-.91,6.36-15.46,9.08-32.73,5.45-32.73,5.45L181,525.46c-3.59,1-16.17,8.67-20.25,6.13-2.61-1.62,1.23-10.67,1.74-12.39.4-1.35-1.41-1.83-.8-2.91s4.28-3.4,7.23-3.81C170,512.32,178.1,511.52,179.19,510.93Z" transform="translate(-124.7 -404.89)"/><path class="cls-1" d="M198.57,502.12a4.79,4.79,0,0,1,1.75-2.86c1.39-.89,2-2.39,3.2-2.39s4,1.76,4,1.76c-2.18-.23-6.39.62-5.53,1.71s1.49,2,1.49,2l-2.14-1.18-.74,1-.86,1.48-1.8.59L193.26,506S199.11,501.93,198.57,502.12Z" transform="translate(-124.7 -404.89)"/><path class="cls-1" d="M410.68,496.08c-.59.12-7.3-8.67-8.4-8.7a15,15,0,0,1-4-.71c-.62-.53.33-1.49-5.08-2.41-.52-.11-.77-.8-1.2-.95-1.54-.52-4.14-.39-4-1.92-.62-1.43-1.22-2.26-2.11-2.31-1.6-2.14-2.6-.95-3.35.13-.85.31.14.51-1.29,1.52-.47.34-.76,0-1.32.44-.22.17-2.1,1.31-2.55.95s-2.61.9-3,1.17c-.18.13-7-1.46-12.42,3.71-7.38,3.44-9.41,7.13-9.41,7.13s3.62,5.11,15.44,5.23,35.24,5.34,35.24,5.34C416.53,503.09,411.28,496,410.68,496.08Z" transform="translate(-124.7 -404.89)"/><path class="cls-2" d="M304.61,515.82c1.29-1.48,39.14-32.41,40.26-33.24s6.31-1.94,7.13-2.6c.46-.37.72-1.16,1.09-1.5,1.93-1.83,2.94-2.73,2.94-2.73.93-.41,1.94-1.59,2.92-2.05s2.15-.29,3.29-.86c.45,0,.93.59,1.43,1.47,0,.88,1.17,1.71,1.74,2.13,1.29,2.66,6.67,4.22,7.91,6a10.66,10.66,0,0,0,.72,2.28c1.2,2.77,9.32,3.54,8.92,6.62,4.71,1.53,7.67,4.18,7.89,3.89,3.12,1.93,5,.56,8.1,2.49,3.2.23,7.91,6.76,11.11,7,3.87,6.17-2.17,5.63,0,8.21,0,0,8.38,13-4.37,12.9s-46.54-8.61-53.42-8.11C350.38,517.84,304.47,516,304.61,515.82Z" transform="translate(-124.7 -404.89)"/><path class="cls-3" d="M264.82,485.08c-2.35-1.21-6.43,3.59-8.42,3s-1.07-.35-2.53-.85c-.82-.27-.52-1.19-1.18-1.46-3.5-1.43-4.07-.42-4.07-.42-1.64-.22-3.47-1.2-5.21-1.46-1.9-.29-3.71.12-5.71-.21a4,4,0,0,0-2.32,1.72,2.11,2.11,0,0,1-1,2.24,47.18,47.18,0,0,1-5.86,7c.05.79-.79,1.72-1,2.4-1.1,3.3-4.32,5.23-8,5.91-9.1,1.67-16.38,8.37-16.38,8.37s-13.13,5.2-15.46,7.53c-.71,1.6-8.78,1-9.42,2.56-3.28,1.11-9.32-.87-10.83.64-1.51.79-3.82.46-4.68,1.38-9.47,10-1.69,10-1.69,10s10.25,3.87,32.08,1.36S245,521.33,256.8,520.49s46.64-26.66,21.55-41.51C278.1,478.83,265.08,485.23,264.82,485.08Z" transform="translate(-124.7 -404.89)"/><path class="cls-4" d="M237.32,484.07s-1.92.4-1.6,2.17-.54.79-1.72,2.76.43,1.38.43,1.38.54-.4-1.07.88-2.35,1.58-3.53,2.56-1,1.18.32,1.77.54.89-1.5,2.76-2.24,2.37-3.53,3-3.64.6-6.2,2.17-6.75,3.06-5.46,2.07l1.82-1.38a15.94,15.94,0,0,0-6.11,3.15c-2.46,2.27-7.49,4.47-7.49,4.47l-7,5.11s12.09-6.33,14.87-8.2,5.89-2.16,4.71-1l-4.81,4.82a90.93,90.93,0,0,1,9.2-5.71c4.07-2.07,6.85-3.84,7.92-4.33.46-.21,5.49,2,6.67,3.47,2.82,3.48-1.6-4.79-1-4.94.31-.07,3.71,2.94.92-.23-1-1.18,2.94-.78,3.74-1.14,2.25-1-7.35.18-8.74,1s-6.64,3.84-6.64,3.84,6.85-5.81,9.31-6.7a70.68,70.68,0,0,0,6.53-3.25c1.5-.69-4.39-.1-3.21-1s1.92-1.88,3.75-2.47-2.36-1.67-1.29-2.36,6,2.46,7.47,3.05-5-4.63-6.29-5.22,0-1.18,1.6-1.28S237.43,484.37,237.32,484.07Z" transform="translate(-124.7 -404.89)"/><path class="cls-5" d="M158.16,530.14c3.29-5.46,15.61-2.68,23.49-4.87,2.42,1.44,14.71-.16,17.86.24,10.07-2.69,24.42-9.58,24.42-9.58s13.77-1.41,22.87-8a274.67,274.67,0,0,1,27.28-28.46c10.91-10,19.1-20.92,28.19-22.59a68.82,68.82,0,0,1,17.28-.84s19.1,12.56,29.1,20.09S377.76,502,377.76,502s8.3,2.76,12.49,8.69c.7,1,2.15.2,7.5.67,2.12.19,5.5,2.58,7.37,2.84,3.56.48,8.73.15,8.51,1.32,2.24,3.14-4.78,19.38-3.84,22.34,1.22,3.81-9.48-1.74-9.3-.58-4.55-1.68-17.28,3.35-21.83,1.67l-195.82.48C171.76,533.85,160.32,536.71,158.16,530.14Z" transform="translate(-124.7 -404.89)"/><path class="cls-6" d="M271.71,541.53s79.07-4,93.69-3.06,25.72.89,30.29-.47,5.46-2.85,5.46-2.85-4.13-14.81-11.21-21.06-33.65-24.71-34.1-25.8-5.46-2.45-9.15-5.71-1.92-3.66-7.23-6.24-5.46-4.08-7.53-5.16-2.8-2.58-5-3.94-2.51-.55-5.31-1.77-3.25-4.34-5.76-5.43.59,4.08,0,7.47-4.86,1.69-5.9,3.86a40.15,40.15,0,0,0-1.92,7.14s2.8,3.67,2.8,6.93-3.48,1.76-1.11,5.15.67,3.54,1.11,7.89-6.19,16.68-7.67,20.76,5.9-9.63,7.53-9.49S308.61,513,308,516a22,22,0,0,0,2.15,4.22l2.5,4.3c3.21,5.51,6.88,11.82,6.8,12.84s-4.24-4.11-7.71-8c-2.42-2.75-4.5-5-4.56-4.32-.09,1.13,2.29,4.73,2.16,5.76a22.37,22.37,0,0,1-.7,4c-1.36,4-3.89-15.76-6.84-12.09-1,1.27-1.37,6.35-2.25,7.86-1.67,2.86-3.77,2.41-5.51,5.6-2.65,4.89.68-16.85.68-16.85s-6.44,12.66-7.92,14.15-6,3.68-7.67,4.91,5.4-10.78,5.4-10.78-5.46,4.62-6.93,6.66-3.52,1.37-5.32,3.17,0-7.11,0-7.11a74,74,0,0,1-2.65,6.92c-.89,1.63,1.52-10.75-1-7s-13.81,8.22-13.81,8.22S272.3,540.71,271.71,541.53Z" transform="translate(-124.7 -404.89)"/><path class="cls-7" d="M339.36,479.69c-.21-.06.55.72,4.18,2.14.84.33.86,2.1,2.17,2.3,7,1.05,3.76.66,6.34,2.57,1.21.89,2.23.4.48-1.81-.86-1.08-2.5-2.8-4.12-4.46-2.37-2.42-4.7-4.7-4.49-4.65,2.52.63,14.31,8.54,16.37,10.75a79.86,79.86,0,0,0,9.06,8.78c5.15,4.13,2.45,4.7,7.27,7.73.88.56,2.42,2.74,3.19,3.31,1.89,1.42,1,0,.65-3.26,1.39,0,5.46,4.15,9.31,8.42.89,1,0-1.41.82-.46s12,3.39,14,9.49c.69,2.09.9-5.06-5.13-8.77,5.66,2.38,9.25,5.35,8.59,4.55.85-.85,2.65.85,5.58-.85,2.43,2.51-4.91,9.93-7.94,11.54-.37.19-8.08,2.09-11.1-.53-2.14-1.86-.64,1.72-2.91-.21-3.18-2.73-9.93-10.75-11-11s2.15,3.29,5.75,7.19c4,4.34,8.38,9.05,7.37,9.15-1.5.14-5.8,3.32-6,3.18-.95-.7-4.76-5.55-9-11-4.62-5.9-9.72-12.46-12.07-14.93A33.91,33.91,0,0,1,363,504a42,42,0,0,0-4-5.71c-2.36-2.43-2.73-3.06.26,3.43a51.64,51.64,0,0,0,2.34,5.11c2.51,4.44,7.76,6.5,7.76,6.5L380.29,530a17.19,17.19,0,0,1-4.36-3.47c-1.75-1.77,6.75,11.58,5,9.65-2-2.29-14.24-19.77-15.82-20.59-.63-.33-4.84-4.28-5.25-4.49-1.24-.62,4.49,8,9.29,15.85,3.76,6.16,6.95,11.88,5.8,12.42a51,51,0,0,1-3.69-5.42c-1.2-1.89-2.59-4.15-4.08-6.56-1.38-2.26-1.1,1.14-2.56-1.25-5.1-8.35-11.87-22.34-13.11-23.59a16.25,16.25,0,0,0-4.82-3.5l6.91,9.32s-11.48-10-8.43-6.76,4.82,5.61,4.82,5.61l1.78,2.8,1.77,3s9.06,11.44,5.77,8.64c-2.38-2-3.28-2.1-.59,2.45,1.05,1.79,5.37,6.14,5.51,6.91s6.15,6,1.79,3.23a52.91,52.91,0,0,1-7.4-6.79,25.5,25.5,0,0,1-1.64-2.25c-3.67-5.72-7.13-7.61-8.78-11.38-2.79-.46,6.6,11.66,6.24,13.66-3-1.78-19.42-30.59-22-32s6.74,12.73,8.13,14.12c-6.6,0-13.14-18.29-15-20.66s-3-7.09-3.19-7.06a51.68,51.68,0,0,0,4.5,5.57,9.51,9.51,0,0,0,3.26,2.43c4.54,1.95,3.55,1.17,5.33,3.5s.5,1.4,3.3,4.44-.26-5.14-.26-5.14l-11.31-9.65c-.3-.26,14.86,8.6,17.4,9.88a39.32,39.32,0,0,1,5.77,3.51c3.73,2.51,8.36,8.28,9.74,9.65.24-1.38-7.23-9.64-9.88-12.07a32.17,32.17,0,0,1-4.87-6l-6.09-1.63-3-4.68s.25-.46-2-3.26-4.9-6.66-4.9-6.66S337.33,476,339.36,479.69Z" transform="translate(-124.7 -404.89)"/><path class="cls-7" d="M311.25,502.13a50.66,50.66,0,0,1,2.22-5c.48.9,2.27,5.77,2.87,7.31.51,1.29,2.56,7.61,3.12,8s.51-4.23.35-5.49c-.26-2,.9-5.07,1.54-2.23.76,4,.5,5.37.5,5.37.68.93,8.52,11.13,9.19,12.06.93.62-5.3-8-4.37-7.39a31.79,31.79,0,0,1,5.17,4.18c2,2.06,3.8,4.62,3.45,7.07,1.21.51,10,9.32,12.07,10.53,1.25.74-4.46-6.25-3.08-5.39l2.69,1.68c4.95,3.08,9.78,6,11.57,6.32.45-.51-8.21-7.83-7.8-8.75.14-.3,6.14,4.59,8.07,5.41-.78-.77-1.55-3-2.78-4.6-2-2.69-5.69-7.31-8.8-10.84-1.81-1.93-4.15-3.29-6.24-5-3.48-2.89-6.26-5.38-4.67-2.69.46.57,1,1.25,1.59,2,3.18,4,7.64,9.82,7.58,9.95a97.8,97.8,0,0,1-9.15-5.77c-1.42-1.2-.94-2.69-1.8-5a10.92,10.92,0,0,1-.51-3.95c.13-2.13.75-3.4-.78-5-1-1.06-3.08-5.14-5.5-8.84-.55-.84-2-.71-2.54-1.5-2.36-3.41-4.95-13.68-4.95-13.68a62.8,62.8,0,0,1,.39,8.8c.22.71,1.77,4.32,2.07,5,.75,1.66,1.74,3.56,2.66,5.3,1.08,2,2.07,3.83,2.5,4.8,1.77,4,1.08,5.31,1.08,5.31l2.28,3s-3.8-.94-4.57-4-1.52-1.4-1.52-4.67a14.27,14.27,0,0,0-.85-5.23c.5-.75-1.61-1.52-1.71-1.56a13.43,13.43,0,0,1-7.13-4.23c-2.28-2.33.6,3.3.6,3.3a22.89,22.89,0,0,0-1.9-3.37l-.9-1.45a15.47,15.47,0,0,1-1.3-2.41c1.05-1.87.18-2.92-.83-4.24a14.27,14.27,0,0,1-.57-6.55c.14,1.1-1.25-6.32-1.38-3.66-.13,2.86-2.49,12.5-.5,14.44C311.48,493.22,311,501.66,311.25,502.13Z" transform="translate(-124.7 -404.89)"/><path class="cls-8" d="M305.37,483.54a69.44,69.44,0,0,1-4,5.7c-6.08,8.14-4.09,2.14-6.75,5.53-2.93,3.75-6.36,13.11-7.5,14.16-1.48,1.36,2.74-10.59.52-9.1s-1.62.14-4.42,3,0-1.09,2.51-5.16,4-3.8,5.31-7.06a21.86,21.86,0,0,0,1.47-4.35,62.7,62.7,0,0,0,4.43-4.61,27.69,27.69,0,0,0,2.07-4.08,22.64,22.64,0,0,1-4.87,4.48c-2.22,1.22-5.17,2.45-5.46,3.94a14.45,14.45,0,0,1-2.22,4.89c-1.33,2.17,0-3.67-2.21,0s-3.1,3.94-5.46,6.38,1,2.86-2.51,6.25,0,4.35-4.58,7.06,3.1-7.47-3.54-1.63-3.39,4.22-8.41,8.56-1.92,4.75-7.68,9c-2.19,1.59-.18-1.91,2.83-6.53,1.83-2.82,4-6,5.87-8.8,3.1-4.62,5.2-7.88,2.91-5.56a95.31,95.31,0,0,1-7.61,6.82c-3.56,2.91-7,5.54-10,8.23-1.49,1.37,1.45-4.92,4.27-10.83,2.5-5.26,4.9-10.22,4-9.23s-10.55,12.86-18.27,16.05c-4.16,4.22-6.42,9.35-6.88,9.39-3,.25,1.53-8.17-1.33-6-.85.65-8.48,5.21-10.77,5.52s6.26-7.06,6.53-7.44c2.67-3.73-22.24,12.13-25,12.24-5.43.23-13.68,2.42.85-4.77-3.28,0-23.68,2.78-26.73,3.84-2.37.82-15.22-.85-11.16,2-5,4.06,11.5,7.24,12.21,9.72-10,1.45,29.39,1.86,32.08,2.53s22-4.69,21.23-4.34c-1.72.77,26.12-1.36,28.63.54s3.49-3.63,5.26-4.31,3.45-1.53,7.29-6c2.94-3.43,2.93-3,4.29-4.63.42-.5-1.77,13.64-1,12.56,1.24-1.69,4.62-14.8,5.73-16.22,1.92-2.47,4.08-7.81,4.83-9.36,1.18-2.45,1.92-.41-.15,3.66s-.59,3-1.91,6.39-1.78,3-1.78,4.75-2.31,9.18-2.31,9.18l5.76-5.84c3.39-1.9.54-5.1,2.16-7.55s-.29,2.78,1.18.6-1.47-4.54,1-8.21c1.81-2.64-.45,6.84,1,5.51.57-.52,4.57-11,5.31-12,2.66-3.53-1.18-1.62,2.81-5.16,1.77-1.56,2.23-2.39,2.35-3.08.15-.88-.24-1.56.75-3.3,1.77-3.12,5.31-9,5-6.25s-2.1,18.8-2.84,20.57,1.51-12.15,0-8.75a46.11,46.11,0,0,1-3.44,5.64c-2.09,3.15-4.25,6.42-4.08,7.8,2.07-2.66-5.31,15-3.88,13.87,1.25-1,4.28-5.21,6.69-8.51a40.59,40.59,0,0,1,3.25-4.18c.39-.3-.64,3.68-1.95,8.24-1.53,5.3-3.45,11.39-4,12.44a7.56,7.56,0,0,0,3.38-3.29c.54-.93,2.07-1,2.6-2,1.3-2.59,1.55-7.37,2.51-9.65,1.12-2.64,1.85-4.55,1.85-4.55s-5,8.17-4.1,4.59,7.91-19.09,8.06-18.13c.48,3.14.19,2.31,1.27-4,.45-2.57-3.19-6-2.6-7.63a8.37,8.37,0,0,0,.15-3.81l.15-3.26A16.36,16.36,0,0,0,305.37,483.54Z" transform="translate(-124.7 -404.89)"/><path class="cls-9" d="M305.7,450.14c2.53-1,2.35-1.42,4.16-.92s3,.92,3,.92.55.3,2.36,1.47,1.13,1,3.12,2.18,1.64-.42,6.16,3.4c2.4,2,2.8,3.85,5.26,4.84,3.05-.4,6,3,6.84,5,3.79,3.32,6.14,2.82,8,5.15,1.51-.66,2.85,1,3,1.54,1.74-.38,1.94,1.4,3.18,3,3.84,4.91,10.05,9.6,8.09,8.95-.35-.12-5.23-2.71-6-3.19-3.11-.3-3.85-2.11-5.17-3.24-2.2-1.88-4.09-3.64-7.14-6.39-4-2-9.54-7-12.92-6.38a34.27,34.27,0,0,1,6.5,5.43c.3.37,1.17,1.83,1.43,2.2,6.45,9.18-5.48-3.32-7.39-2.37-2.12-1.08-.62.33-.62.33.36.78.8,1,1.17,1.76,2.73,3.69,3.58,8.42,7.47,10.77,1.81,1.33,2,1.06,2,1.06l2.35,2.66a4.78,4.78,0,0,1,3.78,1.32c4.83,1.51,10.55,10.2,3.67,3.24-.17-.17-.77-.09-1.65-.41A9.09,9.09,0,0,0,344,492a17.9,17.9,0,0,1-5.28-1.39c-.66-.24-1.1-2.49-1.62-2.7-5-2-4.07-.95-6-2.45-2.17-1.66-1.81-1-3.79-2.16s2,.66-2.71-4.83c-1.55-1.71-3-1.88-4-2.61a33.4,33.4,0,0,1-5.43-5.54c-.3,1.44,3.24,5.05,2.94,6.49.12,1.28.53,5.13.65,6.41,0,0,2.24-5.57,1.15-.76.07,8-1.06,3.23-1.26,5.65-.59,4.56,1.55,6.51,1.8,6.15,1,.56.67,1.44,1.63,2,4.12,2,1.82,2.83-4.32-.23a32.59,32.59,0,0,1-2.36-3.43c-1.08-1.83-.18-2.16-1.08-5s-.91-2.16-.91-3.82a24.92,24.92,0,0,0-.18-3c-.72-.83,0-2.47-.69-3.31-.3-1-2.56-3.63-2.86-4.63-2.09,2,2.17,4.1-1.51,6.94a6.24,6.24,0,0,0-4.09,1.26c-2.64,1.92-2.77,3.9-2.77,3.9s-1.63-.83-4.15,1.66-4.16,4.32-4.16,4.32,3.62-8.94,5.25-11.68c.75-1.24-.83,5.27-.12,4.34.55-.54,1.33.19,1.75-3.35a5.54,5.54,0,0,1,2.15-3.6c.48-.67,1-1.33,1.45-2-.87.3-.84-.2-2.7,1-.06,0-1.21-1.08-1.27-1-2.17-1,.9-6-1.09-4.49s-3.07,6.64-3.07,6.64c-.78.39-2.65,1.78-3.43,2.16-.66.17-.24-.66-.9-.5-.79.5-6.45,6-7.23,6.49,0,0,6-9.48,2.71-7s-4,2.49-4,2.49c-1.15.55.38-.74-.76-.18a62,62,0,0,0-7.47,6.38c.77-2.2,1.61-3.92,5-7.86,5.05-3.33,3.05-4,4.31-6s4.05-2.62,1-2.12c-2.12.93-2.73,4-3,3.87-3.61,3.15-7.67,5.08-11.28,8.24,0,0,3.27-4.78,7-9.33.86-1,3.54-2.44,4.38-3.47,4.52-5.48,4.7-4.16,6-6.48a22.44,22.44,0,0,0,1.62-3.49,4,4,0,0,1,2.89-1.5c2-.16,2.35-.83,3.43-3a8.34,8.34,0,0,0,2.17-1.33l2-2.82s2.75-2.73,4.94-1.64C304.91,449.86,305.49,449.93,305.7,450.14Z" transform="translate(-124.7 -404.89)"/><path class="cls-10" d="M313.19,451.35s1.93-.1,5.31,2.63c-1.37.17-3.54-.32-.88,1.17,3,.4,4.39,2.2,6,1.66a36.16,36.16,0,0,0,3.43,3c.71.59,2.55,1.78,2.77,2.4-.39.1-1.15,1-1.15,1-.29.9-.14.31-.44,1.22a3,3,0,0,1,3.1-.41c2.3-.43,6.27,3.61,8.08,5-3.92-1.83-6.06-3.38-7.54-2.43a4.45,4.45,0,0,1-3.49.11c.33.45,1.19.53,1.61.82,1.27.89,2.23,1.44,2.23,1.44.5.5,3.17,4.49,3.66,5,0,0-5.29-4.53-8.39-5.89s-2.36-1.76-3.83-3,2.65-.82,0-2.86-1.63-.27-3.84-1.9-5.17-2-3.4-.81,1.48,1.9,3.4,3-1.61-.08-3.53-1.71a8.18,8.18,0,0,0-2.82-1.83,5,5,0,0,0-1.77-2.58c-1.62-1.49-3.39-4.61-2.51-2.31s2.36,2.18,2.36,4.08a11.41,11.41,0,0,0,.45,3.26l2.21,2,1.18,2.3,2.51,1.23,3.25,1.35s.14.41,1.62,1.36,1.71.74,3.18,1.69c-.29-1.8.38-.55.87-.26a6.84,6.84,0,0,1,1.9,2.42s6.28,8.09,6.07,9.65c0-.38,2.57,2.83.92,1.78a79.92,79.92,0,0,1-6.21-5.44c-.74-.79-.67-1.86-1.51-3.21-1.37-2.16-2.09.16-2.82-.18-2.65-1.36,2.07,1.77,0,1.23-.51-.1-3.72-6.44-4.21-6.85-1.46-1.22-3-2.26-3-2.3s.38.79-3-2.06c-.44-.33-.58-.9-.86-1.06s-1.35.18-1.41.07c.71-1.18-.39-1.18-1.61-1.54-.13-.35.3-.79.2-.94a26,26,0,0,0-2.67-3.08c-.44,0,1.48,3.62,2,4.77.22.59-.09,1.57.47,2.14.13.14.93,1.18,1.2,1.19s.3-1,.48-.84.32.9.61,1.34.82.7,1.1,1.08c1.33,1.9,1.1,2.52,1.1,2.52a6.26,6.26,0,0,0,1.15,3.33c.12.21-.15.63-.06.83a7.72,7.72,0,0,1,.48,1.8c1.84,5.58.13,1.64-.12,1.82-.42.3-2-5.32-2.67-6.17-.17-.62-.25-1.45-.4-1.92-1.22-3.89-2.53-3.17-2.77-3.28-.81-.33-2.84,4-2.84,4s-1.25,3.75-.51.89a25.91,25.91,0,0,0,.81-4.22c0-.34.74-.45.55-.92-.74-1.9.35-.06.2-2.23s.33-.28.18-1.77-1.41-2.11-1.41-3.61,1.33-.54.15-2-1.48-2.44-1-3-1.55-4.74-1.55-4.74,1.85.52,3.18,1.07a10.08,10.08,0,0,0,1.7.6s.07,1.17,2,1.84a6.19,6.19,0,0,0,1.91.22c0-.46-1.64-.89-2.35-1.63-.86-.88-1.54-1.9-2.17-1.88a11.55,11.55,0,0,1-4.18-.65c1.67-.13,1.24-.71,3.69-.54C309.5,449.58,313.19,451.62,313.19,451.35Z" transform="translate(-124.7 -404.89)"/><path class="cls-11" d="M291.57,459s-1.29-.18-2.22,1.51a32.87,32.87,0,0,0-1.73,3.77s.49-.32-.5.64-3.21,2.14-3.66,3.19,2.72-2,4-2.37a15.33,15.33,0,0,0,3.06-1.91c.84-.5-.69-1.32.79-2.23a11.07,11.07,0,0,1,2.52-1.28c1.58-.68,2.23-.45,1.19,1.05s-.64,1.32-1.39,2.14-.93.41-2.27,2.28-2.17,1.59-2.57,3.18-1.93,2.46-2.37,3.05,3.71-3.28,5.44-4.55,1.43-2,2.81-3,2.18-1.83,3.16-2.55.35-1.46,2-2.78a7.81,7.81,0,0,0,2.42-3.69c.5-1.09.7,2.6-.1,4s-1.72,1.23-2.22,2.23-1.28,2.1-1.38,2.32,2.47-2,3.7-2.91a5.74,5.74,0,0,0,2-3.41c.25-1.05-.45-1.82-.1-2.78s-.74-1.64.25-2.28,1.14-1.41.39-1.68-2.22.41-2,0,.94-1.37.15-1.18a6.12,6.12,0,0,0-3,1.72c-.64.87.5.83-.34,1.92s.64.95,0,1.59-1.44.23-2.43.5-1.43-.73-1.53,1-.1,1.77-1,2.37-2.17.68-3.16,1.32a23,23,0,0,0-2.07,1.54,5.15,5.15,0,0,1,1.33-1.86A2.65,2.65,0,0,0,291.57,459Z" transform="translate(-124.7 -404.89)"/><path class="cls-12" d="M325.9,495.05a2.89,2.89,0,0,1,2.5,1.64c.79,1.65,2.18,1.15,2.18,2.1a6.64,6.64,0,0,0,.83,3.33,19.49,19.49,0,0,1,2.66,4c0,.46-.56-1.3-1.76-1.3a2,2,0,0,1-2-2.18c0-1.24-1.13-2.36-1.8-3s-.11-2.58-1.35-2.58-1.37-1-2.36-2-1.27-3.43-1.27-3.43S325.9,493,325.9,495.05Z" transform="translate(-124.7 -404.89)"/><path class="cls-13" d="M289.22,485a3.12,3.12,0,0,0-1.64.94c-.84.84-.52,2.14-.84,2.46s-.28-.49-1.13-.49-.7-.14-1.82,1-.33,1.76-1.13,2.57l-1.87,1.86-.68.68a10.77,10.77,0,0,1-1.31,3.21c-.66.66,2-.66,2.95-1.58s.09-.8.77-1.48a5.23,5.23,0,0,0,1.35-2.36,14.09,14.09,0,0,1,1.4-2.19c-.61.61,1-.3.46,1.68s-2.1,2.63-1,2.63,1.37-.66,2-1.78,0-1.91.34-2.25.45-1.24,1.24-2l2.25-2.26c.95-.95,1.54-1.23,2.25-1.93s3.66-3.51,3.66-3.51S288.22,484,289.22,485Z" transform="translate(-124.7 -404.89)"/><path class="cls-14" d="M430.75,532.06A95.54,95.54,0,0,0,424.52,503c.07,4.63.31,9.36-.59,13.83a22.58,22.58,0,0,1-2.88-5.65,30.59,30.59,0,0,1-.48,5.09c-2.94-8.35-5.69-16.82-9-25a189.76,189.76,0,0,1-1.48,27.17c-1.58-3.39-1.82-7.73-2.2-11.46-2.09,1.78-2.5,5.63-2.44,8.55-1.39-3.47-2.34-8-4.06-10.92-.35,5.33.13,10.87-.23,16.2-2.31-6.16-.82-17.75-4.95-22-.38,6.43.53,14.14-1,20.31-1-2.64-1.13-5.78-2.07-8.48a32.83,32.83,0,0,0-1.77,10.32c-4.75-3.34-4.31-11.81-6.15-17.35.07,4.57,0,9.15,0,13.72-1.7-7.28-2.81-16.8-6.61-23.12-1.47,8.44.29,18.72-3.22,26.5-.68-3.39-1-6.91-2.2-10.13-.52,3.68-.88,8.18-2.95,11.13-1.61-2-1.85-5.06-2.74-7.54-.72,1.92-1.2,4.6-1.79,6.22-.35-1.67-1.53-3.33-2.07-4.61A16.52,16.52,0,0,1,361,521c-.39-.62-1.67-1.66-2-2.37.23,1.84-.51,3.51-.74,5.17-1.38-1.77-2.06-5-3.09-7.51-.36.89-1.58,2.38-1.81,3.88-2-4.75-3-10.22-4.92-15-1.77,5.06-1.16,12-2,17.51-1.44-2.18-2-6.36-2.89-8.74a24.6,24.6,0,0,1-1.24,7c-4-1.36-4.74-9.73-7.58-13.26-.14,3.15-.1,6.44-.05,9.64-2.83-8.55-5.23-17.35-7.8-26,.13,9.26-.09,18.52.05,27.77-.65-2.21-1.08-4.54-1.68-6.8-2.35,2.28-2.1,8.52-5.47,9.29-1.33-3.25-2-6.78-3.63-9.79-1.22,3.07-1.62,6.94-3.72,9.31-2.25-2.61-2.75-7.2-4.66-10.16-.74,3.13-.84,7.16-1.64,10.66-2.48-2.26-1.61-7.92-4-10.84-.75,2.92-1.36,6.79-3.5,8.48-1-2.18-1.62-4.76-3.11-6.35-.11,2.77-.29,5.61-1.66,8-.36-1.43-1.3-3-1.57-4.33.13,2.25-.68,3-1.53,4.6-.25-.58-1.26-1.85-1.43-2.37a11.41,11.41,0,0,0-.21,1.66c-2.09-1.6-2.13-5.37-2.6-8.11-.41,1.91-.34,5.34-1.43,7.39a25.69,25.69,0,0,1-1.17-2.7,8.3,8.3,0,0,1-2.47,4.58c-.45-.92-1.66-2.09-2-2.82,0,1.6-.85,2.62-1,3.41a76.83,76.83,0,0,0-2.19-9.79,14.18,14.18,0,0,1-.62,6.74c-3.33-6.25-2-15.06-5.46-21.37-.49,7.7.22,17-1.51,24.3-1.19-2.81-1.44-6.12-2.3-9.14-1.63,1.69-1.8,7.47-4.56,7.58-3.19.13-4.29-7.28-5.72-9.81.18,3.44.4,7.33-1.88,9.72-1-1.83-1.73-3.75-2.62-5.64-.08,2.16-.4,4.43-1.53,5.67a63.64,63.64,0,0,1-4.79-16.2c0,3.53-.18,31-5.57,17.46-.25,11.1-5.95,2-7.87-2.8a8.57,8.57,0,0,1-1.92,5.05,23,23,0,0,0-3.13-5.18c.07,2.37-.47,4.62-2.17,5.87-2.3-2.07-2.73-5.77-5.06-7.63.19,2.17.14,4.44-1.11,5.88-1-1.08-2.46-1.79-3.15-3.38.42,7.24-3.21-.37-4.11-3.09-2.08-6.24-3.19-13.3-5.82-19.2-2,8.21,1,17.74,0,26-1.18-3.48-2.21-8.36-4.57-11-1.38,2.89-1.74,7-2.65,10.44-3.21.29-4.84-6-6.53-8.53.37,9.77-1.55,7.5-6.22,2.77a10.33,10.33,0,0,1-1.1,5.93c-4.57-5.72-4.95-15.9-8.3-22.77,0,4.76,1.17,9.73,1.47,14.35-2.44-8.26-4.42-17.09-6.64-25.44.16,10.81,1.83,22.39,1.07,33a11.84,11.84,0,0,0-3.54-6.82c-.19,3.27,0,6.65-.19,9.91-1.41-2-2.07-5-4.07-6.37-.75,2.42-.42,5.39-.56,8.07-.88.5-.67-.77-.95-.51C159.48,529.14,430.75,532.06,430.75,532.06Z" transform="translate(-124.7 -404.89)"/><path class="cls-15" d="M160.1,532.06A94.2,94.2,0,0,1,166.44,503c-.07,4.63-.32,9.36.6,13.83a22.38,22.38,0,0,0,2.94-5.65,29.56,29.56,0,0,0,.48,5.09c3-8.35,5.79-16.82,9.15-25a186.89,186.89,0,0,0,1.51,27.17c1.61-3.39,1.85-7.73,2.23-11.46,2.13,1.78,2.56,5.63,2.49,8.55,1.42-3.47,2.38-8,4.13-10.92.36,5.33-.13,10.87.24,16.2,2.36-6.16.84-17.75,5-22,.4,6.43-.53,14.14,1,20.31,1-2.64,1.14-5.78,2.1-8.48a32.3,32.3,0,0,1,1.81,10.32c4.83-3.34,4.38-11.81,6.26-17.35-.07,4.57,0,9.15,0,13.72,1.73-7.28,2.86-16.8,6.73-23.12,1.5,8.44-.3,18.72,3.28,26.5.69-3.39,1-6.91,2.25-10.13.52,3.68.88,8.18,3,11.13,1.64-2,1.88-5.06,2.79-7.54.73,1.92,1.22,4.6,1.81,6.22.36-1.67,1.57-3.33,2.12-4.61a16.21,16.21,0,0,0,2.75,5.31c.39-.62,1.7-1.66,2-2.37-.23,1.84.52,3.51.75,5.17,1.41-1.77,2.1-5,3.15-7.51.37.89,1.61,2.38,1.85,3.88,2-4.75,3.09-10.22,5-15,1.8,5.06,1.18,12,2.08,17.51,1.46-2.18,2-6.36,2.94-8.74a24.27,24.27,0,0,0,1.25,7c4.11-1.36,4.84-9.73,7.73-13.26.14,3.15.1,6.44.05,9.64,2.88-8.55,5.32-17.35,7.94-26-.14,9.26.09,18.52-.05,27.77.66-2.21,1.1-4.54,1.71-6.8,2.39,2.28,2.14,8.52,5.57,9.29,1.35-3.25,2.06-6.78,3.69-9.79,1.25,3.07,1.66,6.94,3.79,9.31,2.29-2.61,2.8-7.2,4.75-10.16.75,3.13.85,7.16,1.67,10.66,2.53-2.26,1.63-7.92,4.1-10.84.76,2.92,1.39,6.79,3.57,8.48,1.05-2.18,1.65-4.76,3.17-6.35.11,2.77.29,5.61,1.68,8,.37-1.43,1.33-3,1.61-4.33-.14,2.25.68,3,1.55,4.6.26-.58,1.28-1.85,1.46-2.37a11.41,11.41,0,0,1,.21,1.66c2.13-1.6,2.17-5.37,2.65-8.11.42,1.91.35,5.34,1.45,7.39a25.57,25.57,0,0,0,1.2-2.7,8.29,8.29,0,0,0,2.51,4.58c.46-.92,1.69-2.09,2-2.82,0,1.6.86,2.62,1,3.41a75.34,75.34,0,0,1,2.24-9.79,14.06,14.06,0,0,0,.63,6.74c3.39-6.25,2-15.06,5.56-21.37.49,7.7-.23,17,1.53,24.3,1.21-2.81,1.47-6.12,2.35-9.14,1.66,1.69,1.83,7.47,4.64,7.58,3.25.13,4.37-7.28,5.82-9.81-.17,3.44-.4,7.33,1.92,9.72,1-1.83,1.76-3.75,2.67-5.64.07,2.16.41,4.43,1.56,5.67a63,63,0,0,0,4.87-16.2c0,3.53.19,31,5.68,17.46.25,11.1,6.05,2,8-2.8a8.47,8.47,0,0,0,2,5.05,22.77,22.77,0,0,1,3.18-5.18c-.07,2.37.48,4.62,2.21,5.87,2.34-2.07,2.78-5.77,5.15-7.63-.19,2.17-.13,4.44,1.14,5.88,1-1.08,2.5-1.79,3.2-3.38-.42,7.24,3.27-.37,4.19-3.09,2.11-6.24,3.25-13.3,5.93-19.2,2,8.21-1,17.74,0,26,1.2-3.48,2.25-8.36,4.66-11,1.4,2.89,1.76,7,2.69,10.44,3.27.29,4.93-6,6.66-8.53-.38,9.77,1.57,7.5,6.33,2.77a10.33,10.33,0,0,0,1.11,5.93c4.66-5.72,5.05-15.9,8.46-22.77,0,4.76-1.19,9.73-1.5,14.35,2.49-8.26,4.51-17.09,6.77-25.44-.17,10.81-1.87,22.39-1.1,33a11.8,11.8,0,0,1,3.61-6.82c.2,3.27,0,6.65.2,9.91,1.43-2,2.11-5,4.14-6.37.76,2.42.43,5.39.57,8.07.89.5.68-.77,1-.51C436.34,529.14,160.1,532.06,160.1,532.06Z" transform="translate(-124.7 -404.89)"/><rect class="cls-11" x="33.63" y="119.27" width="284.21" height="19.46"/><path class="cls-16" d="M145.79,529.25l32.75-.14,32.76-.06,32.75-.07,16.38,0c5.46,0,10.92-.07,16.38.19a.12.12,0,0,1,.1.12.1.1,0,0,1-.1.09c-5.46.27-10.92.2-16.38.2l-16.38,0-32.75-.07-32.76-.06Z" transform="translate(-124.7 -404.89)"/><path class="cls-16" d="M148.74,529.25a.41.41,0,0,1-.41.42.42.42,0,0,1-.42-.42.41.41,0,0,1,.42-.41A.41.41,0,0,1,148.74,529.25Z" transform="translate(-124.7 -404.89)"/><path class="cls-16" d="M151.28,529.25a.46.46,0,0,1-.47.47.47.47,0,0,1,0-.94A.46.46,0,0,1,151.28,529.25Z" transform="translate(-124.7 -404.89)"/><path class="cls-16" d="M154.29,529.25a.52.52,0,1,1-.51-.51A.51.51,0,0,1,154.29,529.25Z" transform="translate(-124.7 -404.89)"/><path class="cls-16" d="M157.8,529.25a.6.6,0,0,1-.61.6.6.6,0,1,1,0-1.2A.6.6,0,0,1,157.8,529.25Z" transform="translate(-124.7 -404.89)"/><path class="cls-16" d="M161.25,529.25a.74.74,0,1,1-.74-.7A.72.72,0,0,1,161.25,529.25Z" transform="translate(-124.7 -404.89)"/><path class="cls-16" d="M165.22,529.25a.87.87,0,1,1-.87-.83A.86.86,0,0,1,165.22,529.25Z" transform="translate(-124.7 -404.89)"/><path class="cls-16" d="M169.77,529.25a1,1,0,1,1-1-1A1,1,0,0,1,169.77,529.25Z" transform="translate(-124.7 -404.89)"/><path class="cls-16" d="M174.83,529.25a1.13,1.13,0,1,1-1.13-1.08A1.11,1.11,0,0,1,174.83,529.25Z" transform="translate(-124.7 -404.89)"/><path class="cls-16" d="M180.61,529.25a1.32,1.32,0,1,1-1.32-1.26A1.29,1.29,0,0,1,180.61,529.25Z" transform="translate(-124.7 -404.89)"/><path class="cls-16" d="M186.45,529.25a1.52,1.52,0,1,1-1.51-1.46A1.48,1.48,0,0,1,186.45,529.25Z" transform="translate(-124.7 -404.89)"/><path class="cls-16" d="M194.13,529.25a1.84,1.84,0,1,1-1.84-1.76A1.8,1.8,0,0,1,194.13,529.25Z" transform="translate(-124.7 -404.89)"/><path class="cls-16" d="M203.7,529.25a2.21,2.21,0,1,1-2.21-2.12A2.18,2.18,0,0,1,203.7,529.25Z" transform="translate(-124.7 -404.89)"/><path class="cls-16" d="M215.79,529.25a3,3,0,1,1-3-2.85A2.9,2.9,0,0,1,215.79,529.25Z" transform="translate(-124.7 -404.89)"/><path class="cls-16" d="M227.4,529.25A3.36,3.36,0,1,1,224,526,3.3,3.3,0,0,1,227.4,529.25Z" transform="translate(-124.7 -404.89)"/><path class="cls-16" d="M444.36,529.25l-32.75.14-32.76.06-32.75.07-16.38,0c-5.46,0-10.92.07-16.38-.2a.1.1,0,0,1-.1-.1.13.13,0,0,1,.1-.11c5.46-.26,10.92-.19,16.38-.19l16.38,0,32.75.07,32.76.06Z" transform="translate(-124.7 -404.89)"/><path class="cls-16" d="M441.41,529.25a.42.42,0,1,0,.83,0,.42.42,0,0,0-.83,0Z" transform="translate(-124.7 -404.89)"/><path class="cls-16" d="M438.87,529.25a.46.46,0,0,0,.46.47.47.47,0,0,0,0-.94A.46.46,0,0,0,438.87,529.25Z" transform="translate(-124.7 -404.89)"/><path class="cls-16" d="M435.86,529.25a.52.52,0,1,0,.51-.51A.51.51,0,0,0,435.86,529.25Z" transform="translate(-124.7 -404.89)"/><path class="cls-16" d="M432.34,529.25a.63.63,0,1,0,.62-.6A.61.61,0,0,0,432.34,529.25Z" transform="translate(-124.7 -404.89)"/><path class="cls-16" d="M428.9,529.25a.74.74,0,1,0,.73-.7A.72.72,0,0,0,428.9,529.25Z" transform="translate(-124.7 -404.89)"/><path class="cls-16" d="M424.93,529.25a.87.87,0,1,0,.87-.83A.86.86,0,0,0,424.93,529.25Z" transform="translate(-124.7 -404.89)"/><path class="cls-16" d="M420.38,529.25a1,1,0,1,0,1-1A1,1,0,0,0,420.38,529.25Z" transform="translate(-124.7 -404.89)"/><path class="cls-16" d="M415.32,529.25a1.13,1.13,0,1,0,1.13-1.08A1.11,1.11,0,0,0,415.32,529.25Z" transform="translate(-124.7 -404.89)"/><path class="cls-16" d="M409.54,529.25a1.32,1.32,0,1,0,1.31-1.26A1.29,1.29,0,0,0,409.54,529.25Z" transform="translate(-124.7 -404.89)"/><path class="cls-16" d="M403.69,529.25a1.52,1.52,0,1,0,1.52-1.46A1.49,1.49,0,0,0,403.69,529.25Z" transform="translate(-124.7 -404.89)"/><path class="cls-16" d="M396,529.25a1.83,1.83,0,1,0,1.84-1.76A1.8,1.8,0,0,0,396,529.25Z" transform="translate(-124.7 -404.89)"/><path class="cls-16" d="M386.45,529.25a2.21,2.21,0,1,0,2.21-2.12A2.18,2.18,0,0,0,386.45,529.25Z" transform="translate(-124.7 -404.89)"/><path class="cls-16" d="M374.36,529.25a3,3,0,1,0,3-2.85A2.9,2.9,0,0,0,374.36,529.25Z" transform="translate(-124.7 -404.89)"/><path class="cls-16" d="M362.75,529.25a3.36,3.36,0,1,0,3.36-3.23A3.3,3.3,0,0,0,362.75,529.25Z" transform="translate(-124.7 -404.89)"/><path class="cls-16" d="M298.21,529.25a3,3,0,1,1-3-2.9A3,3,0,0,1,298.21,529.25Z" transform="translate(-124.7 -404.89)"/><path class="cls-16" d="M292.19,529.25a2.36,2.36,0,1,1-2.36-2.26A2.31,2.31,0,0,1,292.19,529.25Z" transform="translate(-124.7 -404.89)"/><path class="cls-16" d="M287.48,529.25a2,2,0,1,1-2-1.92A2,2,0,0,1,287.48,529.25Z" transform="translate(-124.7 -404.89)"/><path class="cls-16" d="M283.48,529.25a1.7,1.7,0,1,1-1.7-1.64A1.67,1.67,0,0,1,283.48,529.25Z" transform="translate(-124.7 -404.89)"/><path class="cls-16" d="M280.08,529.25a1.37,1.37,0,1,1-1.37-1.32A1.34,1.34,0,0,1,280.08,529.25Z" transform="translate(-124.7 -404.89)"/><path class="cls-16" d="M298.05,529.25A2.36,2.36,0,1,0,300.4,527,2.3,2.3,0,0,0,298.05,529.25Z" transform="translate(-124.7 -404.89)"/><path class="cls-16" d="M302.76,529.25a2,2,0,1,0,2-1.92A2,2,0,0,0,302.76,529.25Z" transform="translate(-124.7 -404.89)"/><path class="cls-16" d="M306.75,529.25a1.7,1.7,0,1,0,1.7-1.64A1.67,1.67,0,0,0,306.75,529.25Z" transform="translate(-124.7 -404.89)"/><path class="cls-16" d="M310.16,529.25a1.37,1.37,0,1,0,1.37-1.32A1.34,1.34,0,0,0,310.16,529.25Z" transform="translate(-124.7 -404.89)"/><text class="cls-17" transform="matrix(0.68, -0.64, 0.68, 0.73, 30.11, 85.28)">I</text><text class="cls-17" transform="translate(38.06 76.76) rotate(-29.42) scale(0.93 1)">n</text><text class="cls-17" transform="translate(61.77 63.79) rotate(-20.62) scale(0.93 1)">t</text><text class="cls-17" transform="matrix(0.9, -0.25, 0.27, 0.96, 80.81, 56.63)">e</text><text class="cls-17" transform="translate(101.19 50.87) rotate(-11.35) scale(0.93 1)">r</text><text class="cls-17" transform="matrix(0.93, -0.13, 0.14, 0.99, 125.95, 45.91)">s</text><text class="cls-17" transform="matrix(0.93, -0.07, 0.08, 1, 149.86, 42.62)">k</text><text class="cls-17" transform="matrix(0.93, -0.04, 0.04, 1, 176.04, 40.67)">i</text><text class="cls-17" transform="matrix(0.93, -0.01, 0.02, 1, 188.22, 40.17)"> </text><ellipse class="cls-11" cx="175.73" cy="136.66" rx="142.11" ry="7.66"/></svg>