<?xml version="1.0" encoding="utf-8"?>
<!-- Generator: Adobe Illustrator 26.0.1, SVG Export Plug-In . SVG Version: 6.00 Build 0)  -->
<svg version="1.1" id="Calque_1" xmlns="http://www.w3.org/2000/svg" xmlns:xlink="http://www.w3.org/1999/xlink" x="0px" y="0px"
	 viewBox="0 0 612 1008" style="enable-background:new 0 0 612 1008;" xml:space="preserve">
<style type="text/css">
	.st0{fill-rule:evenodd;clip-rule:evenodd;fill:#003547;}
	.st1{fill-rule:evenodd;clip-rule:evenodd;fill:#024676;}
	.st2{opacity:0.8;fill-rule:evenodd;clip-rule:evenodd;fill:#024676;}
	.st3{fill-rule:evenodd;clip-rule:evenodd;fill:#FFFFFF;}
	.st4{opacity:0.8;fill-rule:evenodd;clip-rule:evenodd;fill:#FCFDFB;}
	.st5{fill-rule:evenodd;clip-rule:evenodd;fill:#004777;}
	.st6{opacity:0.8;fill-rule:evenodd;clip-rule:evenodd;fill:#045F92;}
	.st7{fill-rule:evenodd;clip-rule:evenodd;fill:#004C77;}
	.st8{fill:url(#SVGID_1_);}
	.st9{fill-rule:evenodd;clip-rule:evenodd;fill:#A7CFE5;}
	.st10{fill:#FFFFFF;}
	.st11{fill:url(#SVGID_00000092434881573937593010000016332753477597840796_);}
	.st12{fill:url(#SVGID_00000008133435317121920950000005900488058398410164_);}
	.st13{fill-rule:evenodd;clip-rule:evenodd;fill:#0F2538;}
	.st14{fill-rule:evenodd;clip-rule:evenodd;fill:#14304C;}
	.st15{fill:#14304C;}
	.st16{fill:none;}
</style>
<g>
	<g>
		<g>
			<g>
				<path class="st0" d="M179.19,510.93c0,0,0.4,0.06,1.14,0.04c0.74-0.02,1.82-0.1,3.18-0.38c1.36-0.29,3.01-0.77,4.89-1.58
					c0.75-0.67-0.41-1.41,6.25-3.53c0.64-0.23,0.94-0.97,1.48-1.21c1.9-0.87,3.32-1.36,3.11-2.86c0.77-1.57,1.5-2.54,2.61-2.78
					c1.97-2.5,2.16-1.65,3.09-0.75c1.04,0.13,2.64,0.74,4.4,1.44c0.59,0.23,0.94,0.29,1.63,0.59c0.27,0.12,0.43-0.28,0.8,0.35
					c0.28,0.48,1.77,0.74,1.97,0.82c5.76,2.33,7.1,1.99,14.56,3.48c9.09,1.82,16.37,1.82,16.37,1.82s-0.91,6.35-15.46,9.08
					c-14.55,2.72-32.74,5.45-32.74,5.45L181,525.46c-3.6,1.05-16.18,8.67-20.25,6.14c-2.61-1.63,1.23-10.68,1.74-12.4
					c0.4-1.35-1.41-1.82-0.8-2.91c0.66-1.17,4.28-3.39,7.23-3.81C170.01,512.32,178.1,511.52,179.19,510.93z"/>
				<path class="st0" d="M198.57,502.12c0,0,0.36-1.97,1.75-2.86c1.39-0.89,1.97-2.39,3.2-2.39c1.24,0,4,1.76,4,1.76
					c-2.18-0.23-6.39,0.62-5.53,1.71c0.86,1.08,1.5,1.97,1.5,1.97l-2.14-1.18l-0.75,0.98l-0.86,1.48l-1.8,0.59l-4.68,1.82
					C193.26,505.99,199.11,501.93,198.57,502.12z"/>
			</g>
			<path class="st0" d="M410.68,496.08c-0.6,0.12-7.3-8.67-8.41-8.7c-1.11-0.04-2.45-0.23-3.97-0.7c-0.61-0.54,0.34-1.49-5.08-2.41
				c-0.52-0.12-0.77-0.8-1.2-0.95c-1.54-0.53-4.14-0.39-3.97-1.92c-0.63-1.43-1.22-2.26-2.12-2.31c-1.59-2.15-2.59-0.95-3.35,0.12
				c-0.85,0.32,0.14,0.51-1.29,1.53c-0.48,0.34-0.76,0.01-1.32,0.44c-0.22,0.17-2.1,1.31-2.55,0.94c-0.3-0.24-2.62,0.91-2.98,1.18
				c-0.18,0.13-6.95-1.46-12.42,3.7c-7.38,3.44-9.41,7.13-9.41,7.13s3.62,5.11,15.44,5.23c11.81,0.12,35.25,5.33,35.25,5.33
				C416.53,503.09,411.28,495.96,410.68,496.08z"/>
			<path class="st1" d="M304.61,515.82c1.29-1.48,39.14-32.4,40.26-33.24c1.11-0.83,6.32-1.94,7.13-2.6
				c0.46-0.37,0.72-1.16,1.08-1.5c1.94-1.83,2.95-2.73,2.95-2.73c0.93-0.4,1.93-1.59,2.92-2.05c1.08-0.51,2.15-0.29,3.29-0.86
				c0.45-0.01,0.93,0.59,1.43,1.47c0.03,0.88,1.17,1.71,1.74,2.13c1.29,2.66,6.67,4.22,7.91,5.99c0.02,0.79,0.55,1.63,0.73,2.29
				c1.19,2.77,9.32,3.54,8.92,6.62c4.71,1.53,7.67,4.18,7.89,3.89c3.12,1.93,4.98,0.56,8.1,2.49c3.2,0.22,7.91,6.76,11.11,6.98
				c3.87,6.17-2.17,5.63,0,8.21c0,0,8.37,12.95-4.37,12.9c-12.74-0.05-46.54-8.61-53.42-8.11
				C350.38,517.84,304.47,515.99,304.61,515.82z"/>
			<g>
				<path class="st2" d="M264.82,485.08c-2.35-1.21-6.43,3.6-8.42,2.99c-1.99-0.61-1.06-0.35-2.53-0.85
					c-0.82-0.27-0.52-1.2-1.17-1.46c-3.5-1.43-4.08-0.41-4.08-0.41c-1.63-0.22-3.47-1.2-5.2-1.47c-1.9-0.29-3.71,0.13-5.71-0.21
					c-0.77,0.08-1.54,0.76-2.32,1.72c0.03,0.88-0.06,1.72-1,2.24c-1.95,2.88-3.9,4.99-5.85,6.98c0.04,0.79-0.79,1.72-1.02,2.4
					c-1.11,3.3-4.32,5.23-8,5.9c-9.1,1.67-16.37,8.37-16.37,8.37s-13.13,5.2-15.46,7.53c-0.72,1.6-8.79,0.99-9.42,2.57
					c-3.28,1.11-9.32-0.87-10.83,0.64c-1.51,0.79-3.81,0.46-4.68,1.38c-9.47,10.01-1.69,9.97-1.69,9.97s10.25,3.86,32.08,1.35
					c21.83-2.51,51.84-13.39,63.66-14.23c11.7-0.83,46.64-26.66,21.55-41.51C278.1,478.83,265.08,485.23,264.82,485.08z"/>
				<path class="st3" d="M237.32,484.07c0,0-1.93,0.39-1.6,2.16c0.32,1.77-0.54,0.79-1.71,2.76c-1.18,1.97,0.43,1.38,0.43,1.38
					s0.54-0.39-1.07,0.88c-1.61,1.28-2.36,1.58-3.53,2.56c-1.18,0.99-0.96,1.19,0.32,1.78c1.28,0.59,0.53,0.89-1.5,2.76
					c-2.03,1.87-2.25,2.37-3.53,3.05c-1.28,0.69-3.64,0.59-6.21,2.17c-2.57,1.57-6.74,3.05-5.46,2.07c1.29-0.98,1.82-1.38,1.82-1.38
					s-3.64,0.88-6.1,3.15c-2.46,2.26-7.49,4.46-7.49,4.46l-6.96,5.11c0,0,12.09-6.33,14.88-8.2c2.78-1.87,5.88-2.17,4.71-0.98
					c-1.18,1.18-4.82,4.83-4.82,4.83s5.14-3.64,9.2-5.71c4.07-2.07,6.85-3.84,7.92-4.33c0.46-0.21,5.49,2.03,6.66,3.47
					c2.83,3.47-1.6-4.79-0.97-4.94c0.31-0.08,3.7,2.94,0.91-0.23c-1.05-1.19,2.94-0.79,3.75-1.14c2.25-0.98-7.36,0.18-8.75,0.96
					c-1.39,0.79-6.63,3.84-6.63,3.84s6.85-5.81,9.31-6.7c2.46-0.89,5.03-2.56,6.53-3.25c1.5-0.69-4.39-0.1-3.21-0.99
					c1.18-0.89,1.93-1.87,3.75-2.46c1.82-0.59-2.35-1.67-1.29-2.36c1.07-0.69,5.98,2.46,7.47,3.05c1.5,0.59-5.01-4.63-6.29-5.22
					c-1.28-0.59,0-1.18,1.61-1.28C241.07,485.25,237.43,484.37,237.32,484.07z"/>
			</g>
		</g>
		<g>
			<g>
				<path class="st4" d="M158.16,530.14c3.29-5.46,15.61-2.67,23.49-4.87c2.42,1.45,14.71-0.16,17.86,0.25
					c10.08-2.69,24.42-9.58,24.42-9.58s13.77-1.41,22.87-7.99c9.09-10.88,16.37-18.41,27.28-28.45
					c10.91-10.04,19.1-20.92,28.19-22.59c9.1-1.67,17.28-0.84,17.28-0.84s19.1,12.55,29.1,20.08c10.01,7.53,29.1,25.82,29.1,25.82
					c-0.08,0,8.3,2.75,12.49,8.68c0.71,1,2.15,0.21,7.5,0.68c2.12,0.19,5.5,2.58,7.37,2.83c3.56,0.48,8.73,0.16,8.51,1.33
					c2.24,3.14-4.78,19.38-3.84,22.34c1.22,3.81-9.48-1.74-9.3-0.58c-4.55-1.67-17.28,3.35-21.83,1.68l-195.82,0.48
					C171.76,533.85,160.32,536.71,158.16,530.14z"/>
				<path class="st5" d="M271.71,541.53c0,0,79.07-4.01,93.68-3.06c14.61,0.95,25.72,0.89,30.3-0.47c4.58-1.36,5.46-2.85,5.46-2.85
					s-4.13-14.81-11.22-21.05c-7.08-6.25-33.65-24.72-34.09-25.8c-0.45-1.09-5.46-2.45-9.15-5.71c-3.69-3.26-1.92-3.66-7.23-6.25
					c-5.31-2.58-5.46-4.07-7.53-5.16c-2.07-1.08-2.8-2.58-5.02-3.94c-2.22-1.36-2.51-0.54-5.31-1.76c-2.8-1.22-3.25-4.34-5.76-5.43
					c-2.51-1.09,0.59,4.07,0,7.47c-0.59,3.4-4.87,1.69-5.9,3.86c-1.03,2.17-1.92,7.14-1.92,7.14s2.8,3.67,2.8,6.93
					c0,3.26-3.48,1.76-1.12,5.16c2.36,3.39,0.68,3.54,1.12,7.88c0.44,4.35-6.2,16.69-7.68,20.76c-1.47,4.07,5.9-9.62,7.53-9.49
					c1.62,0.14-2.07,3.26-2.66,6.25c-0.05,0.26,0.84,1.92,2.15,4.21c0.73,1.28,1.6,2.76,2.49,4.31c3.21,5.51,6.88,11.82,6.8,12.84
					c-0.07,0.87-4.25-4.11-7.71-8.04c-2.42-2.75-4.5-4.98-4.56-4.32c-0.1,1.13,2.28,4.73,2.15,5.76c-0.19,1.58-0.38,3.04-0.7,3.98
					c-1.36,4.02-3.89-15.76-6.84-12.09c-1.02,1.27-1.37,6.35-2.26,7.86c-1.67,2.86-3.77,2.4-5.5,5.6
					c-2.66,4.89,0.67-16.86,0.67-16.86s-6.44,12.66-7.92,14.16c-1.48,1.49-6.04,3.68-7.67,4.91c-1.63,1.22,5.4-10.78,5.4-10.78
					s-5.46,4.62-6.94,6.66c-1.48,2.04-3.52,1.38-5.32,3.17c-1.8,1.8,0-7.11,0-7.11s-1.77,5.3-2.66,6.93
					c-0.88,1.63,1.52-10.76-0.98-7.06c-2.5,3.7-13.81,8.22-13.81,8.22S272.3,540.71,271.71,541.53z"/>
				<path class="st6" d="M339.36,479.69c-0.21-0.06,0.54,0.72,4.18,2.14c0.84,0.33,0.86,2.1,2.16,2.3c6.97,1.05,3.76,0.66,6.34,2.57
					c1.21,0.9,2.23,0.4,0.48-1.81c-0.86-1.08-2.5-2.8-4.12-4.46c-2.37-2.42-4.7-4.7-4.48-4.65c2.52,0.62,14.31,8.54,16.37,10.75
					c3.43,3.69,5.77,6.15,9.06,8.78c5.15,4.13,2.45,4.7,7.27,7.73c0.88,0.55,2.42,2.74,3.19,3.31c1.9,1.42,0.98,0.05,0.65-3.26
					c1.39,0,5.46,4.15,9.31,8.42c0.89,0.99-0.01-1.41,0.82-0.46c0.95,1.08,11.99,3.39,14,9.49c0.69,2.09,0.9-5.06-5.13-8.77
					c5.66,2.38,9.25,5.35,8.6,4.55c0.85-0.85,2.64,0.85,5.58-0.85c2.43,2.51-4.91,9.93-7.94,11.53c-0.37,0.2-8.09,2.1-11.11-0.53
					c-2.14-1.86-0.64,1.73-2.9-0.21c-3.18-2.73-9.93-10.75-11-11.03c-1.16-0.3,2.15,3.29,5.75,7.19c4.01,4.34,8.38,9.05,7.37,9.15
					c-1.5,0.15-5.79,3.33-5.98,3.18c-0.95-0.7-4.77-5.55-8.99-10.95c-4.62-5.91-9.72-12.46-12.07-14.93
					c-1.49-1.56-2.7-3.27-3.76-4.9c-1.48-2.26-2.7-4.36-4.01-5.71c-2.36-2.43-2.72-3.06,0.26,3.43c0.69,1.5,1.08,2.88,2.34,5.11
					c2.51,4.45,7.75,6.5,7.75,6.5l10.93,16.71c-1.37-0.66-2.84-1.93-4.36-3.47c-1.75-1.78,6.75,11.57,5.03,9.64
					c-2.03-2.29-14.24-19.77-15.82-20.59c-0.63-0.33-4.84-4.28-5.25-4.49c-1.24-0.63,4.49,7.97,9.29,15.84
					c3.75,6.16,6.94,11.88,5.8,12.42c-0.53-0.53-1.89-2.57-3.69-5.42c-1.2-1.89-2.59-4.14-4.08-6.56c-1.39-2.26-1.1,1.14-2.56-1.25
					c-5.1-8.35-11.87-22.34-13.1-23.59c-2.54-2.57-4.82-3.5-4.82-3.5l6.91,9.32c0,0-11.48-10.02-8.43-6.76
					c3.04,3.27,4.82,5.61,4.82,5.61l1.78,2.8l1.78,3.04c0,0,9.06,11.44,5.76,8.64c-2.37-2.01-3.27-2.1-0.59,2.46
					c1.05,1.79,5.37,6.13,5.51,6.91c0.14,0.73,6.15,6.05,1.79,3.23c-0.8-0.52-5.48-4.39-7.4-6.79c-0.6-0.75-1.17-1.52-1.64-2.25
					c-3.67-5.71-7.13-7.6-8.78-11.37c-2.79-0.47,6.6,11.65,6.23,13.66c-2.97-1.78-19.42-30.59-21.96-31.99
					c-2.54-1.4,6.74,12.73,8.13,14.12c-6.6,0-13.14-18.29-14.98-20.66c-1.85-2.37-3.01-7.09-3.19-7.06c-0.12,0.02,2.6,3.51,4.5,5.57
					c0.86,0.93,1.84,1.82,3.26,2.43c4.54,1.95,3.55,1.17,5.33,3.5c1.78,2.34,0.51,1.41,3.3,4.44c2.79,3.04-0.25-5.14-0.25-5.14
					l-11.31-9.65c-0.3-0.26,14.86,8.6,17.4,9.89c2.54,1.29,2.77,1.49,5.76,3.5c3.73,2.51,8.37,8.28,9.74,9.65
					c0.24-1.38-7.23-9.64-9.88-12.08c-2.79-2.57-4.87-5.99-4.87-5.99l-6.09-1.63l-3.05-4.67c0,0,0.25-0.47-2.03-3.27
					c-2.29-2.8-4.9-6.65-4.9-6.65S337.33,475.96,339.36,479.69z"/>
				<path class="st6" d="M311.25,502.13c0,0,1.17-3.1,2.22-5.02c0.48,0.9,2.27,5.76,2.87,7.31c0.51,1.29,2.56,7.61,3.12,7.99
					c0.56,0.38,0.51-4.22,0.35-5.49c-0.26-2.03,0.9-5.08,1.54-2.23c0.76,3.97,0.51,5.37,0.51,5.37c0.67,0.93,8.51,11.13,9.19,12.06
					c0.93,0.62-5.3-8.01-4.37-7.39c0,0,2.76,1.73,5.17,4.17c2.03,2.06,3.8,4.62,3.45,7.08c1.21,0.5,10.03,9.31,12.07,10.52
					c1.25,0.75-4.47-6.25-3.08-5.39c0.89,0.55,1.79,1.11,2.69,1.67c4.95,3.08,9.79,6.04,11.57,6.33c0.45-0.51-8.21-7.83-7.8-8.75
					c0.14-0.3,6.14,4.59,8.07,5.41c-0.77-0.77-1.55-2.99-2.77-4.61c-2.04-2.69-5.7-7.31-8.8-10.84c-1.81-1.93-4.15-3.29-6.24-5.02
					c-3.48-2.89-6.26-5.37-4.67-2.69c0.46,0.57,1.01,1.25,1.6,1.99c3.18,4.01,7.64,9.82,7.57,9.95c0.19,0.19-7.31-4.23-9.15-5.77
					c-1.42-1.2-0.94-2.69-1.8-5c-0.51-1.63-0.57-2.9-0.51-3.95c0.12-2.13,0.74-3.39-0.79-4.95c-1.03-1.06-3.08-5.14-5.5-8.84
					c-0.55-0.84-1.99-0.71-2.54-1.5c-2.37-3.41-4.95-13.69-4.95-13.69s0.58,4.83,0.39,8.8c0.22,0.71,1.78,4.32,2.08,4.98
					c0.75,1.66,1.74,3.56,2.66,5.3c1.07,2.02,2.06,3.83,2.49,4.8c1.78,3.97,1.08,5.31,1.08,5.31c0.76,1.01,1.52,2.02,2.28,3.04
					c0,0-3.81-0.93-4.57-3.97c-0.76-3.04-1.52-1.4-1.52-4.67c0-3.27-0.86-5.22-0.86-5.22c0.5-0.76-1.61-1.53-1.71-1.57
					c-2.54-0.46-4.85-1.89-7.13-4.22c-2.28-2.33,0.61,3.3,0.61,3.3c-0.28-0.77-1.08-2.06-1.9-3.38c-0.3-0.49-0.61-0.98-0.9-1.45
					c-0.59-0.96-1.09-1.83-1.3-2.41c1.05-1.87,0.18-2.92-0.83-4.24c-0.78-2.14-0.82-4.69-0.57-6.56c0.14,1.1-1.25-6.31-1.38-3.66
					c-0.14,2.87-2.49,12.5-0.5,14.44C311.48,493.22,311,501.66,311.25,502.13z"/>
				<path class="st7" d="M305.37,483.54c0,0-0.84,1.49-3.99,5.7c-6.07,8.14-4.09,2.13-6.75,5.53c-2.93,3.75-6.36,13.11-7.5,14.16
					c-1.48,1.36,2.74-10.59,0.52-9.09c-2.21,1.49-1.63,0.13-4.43,2.99c-2.8,2.85,0-1.09,2.51-5.16c2.51-4.07,3.99-3.8,5.31-7.06
					c1.33-3.26,1.47-4.34,1.47-4.34s3.54-3.4,4.43-4.62c0.89-1.23,2.07-4.08,2.07-4.08s-2.66,3.26-4.87,4.48
					c-2.22,1.22-5.17,2.44-5.46,3.94c-0.3,1.49-0.89,2.72-2.22,4.89c-1.33,2.17,0-3.67-2.21,0c-2.21,3.67-3.1,3.94-5.46,6.38
					c-2.36,2.45,1.03,2.86-2.51,6.25c-3.54,3.39,0,4.34-4.57,7.06c-4.58,2.72,3.1-7.47-3.54-1.63c-6.64,5.84-3.39,4.21-8.41,8.55
					c-5.02,4.35-1.92,4.75-7.67,8.97c-2.19,1.6-0.18-1.9,2.82-6.53c1.83-2.82,4.03-6.05,5.88-8.8c3.1-4.61,5.2-7.87,2.91-5.55
					c-2.47,2.49-5.06,4.73-7.62,6.81c-3.56,2.91-7.04,5.54-9.96,8.23c-1.49,1.38,1.45-4.92,4.27-10.83c2.5-5.26,4.9-10.21,4.01-9.23
					c-0.93,1.02-10.55,12.87-18.27,16.05c-4.16,4.22-6.42,9.35-6.87,9.39c-3.01,0.26,1.53-8.17-1.33-6.03
					c-0.86,0.64-8.48,5.21-10.77,5.52c-2.28,0.32,6.26-7.07,6.53-7.45c2.67-3.72-22.24,12.13-25.02,12.25
					c-5.43,0.23-13.68,2.42,0.85-4.77c-3.28-0.05-23.68,2.78-26.73,3.84c-2.37,0.82-15.22-0.84-11.17,1.96
					c-5,4.06,11.5,7.24,12.21,9.72c-9.96,1.45,29.39,1.86,32.08,2.53c2.71,0.68,22.02-4.69,21.23-4.34
					c-1.72,0.76,26.12-1.36,28.64,0.54c2.51,1.9,3.48-3.63,5.26-4.31c1.77-0.68,3.45-1.53,7.29-6.01c2.94-3.43,2.94-2.96,4.3-4.63
					c0.42-0.51-1.78,13.64-0.98,12.55c1.24-1.69,4.62-14.8,5.73-16.22c1.92-2.47,4.09-7.81,4.83-9.36c1.18-2.45,1.92-0.41-0.15,3.67
					c-2.06,4.07-0.59,2.99-1.92,6.38c-1.33,3.4-1.77,2.99-1.77,4.75c0,1.77-2.31,9.18-2.31,9.18l5.76-5.84
					c3.39-1.9,0.54-5.11,2.16-7.55c1.62-2.44-0.3,2.78,1.18,0.6c1.48-2.17-1.48-4.54,1.03-8.21c1.81-2.64-0.45,6.84,1.03,5.5
					c0.57-0.52,4.58-11.04,5.32-12.02c2.66-3.53-1.18-1.63,2.8-5.16c1.77-1.57,2.23-2.39,2.35-3.08c0.15-0.87-0.23-1.56,0.75-3.3
					c1.77-3.12,5.31-8.96,5.02-6.24c-0.3,2.72-2.1,18.8-2.83,20.57c-0.74,1.76,1.51-12.15,0.03-8.76c-0.6,1.38-2.01,3.48-3.44,5.64
					c-2.1,3.15-4.26,6.43-4.08,7.8c2.07-2.66-5.31,15.03-3.88,13.87c1.25-1.01,4.27-5.2,6.68-8.5c1.55-2.12,2.85-3.88,3.25-4.19
					c0.39-0.29-0.64,3.68-1.95,8.24c-1.53,5.3-3.44,11.39-3.95,12.44c0.97-0.52,2.15-1.17,3.38-3.29c0.54-0.93,2.07-0.96,2.61-2.02
					c1.3-2.59,1.55-7.37,2.51-9.65c1.11-2.64,1.84-4.55,1.84-4.55s-5.04,8.17-4.1,4.6c0.96-3.67,7.91-19.09,8.06-18.13
					c0.49,3.13,0.2,2.3,1.28-3.99c0.44-2.58-3.19-6.01-2.6-7.64c0.59-1.63,0.15-3.8,0.15-3.8l0.15-3.26
					C306.55,485.84,305.66,483.81,305.37,483.54z"/>
			</g>
			<g>
				<linearGradient id="SVGID_1_" gradientUnits="userSpaceOnUse" x1="314.8177" y1="484.4483" x2="307.0151" y2="449.812">
					<stop  offset="5.435000e-03" style="stop-color:#BCE2F4"/>
					<stop  offset="0.3261" style="stop-color:#E1F2F7"/>
					<stop  offset="1" style="stop-color:#FFFFFF"/>
				</linearGradient>
				<path class="st8" d="M305.7,450.14c2.53-1,2.35-1.42,4.16-0.92c1.81,0.5,2.99,0.92,2.99,0.92s0.56,0.31,2.36,1.47
					c1.81,1.16,1.13,1.02,3.12,2.18c1.99,1.16,1.65-0.42,6.16,3.41c2.4,2.03,2.8,3.85,5.26,4.84c3.05-0.4,5.97,2.99,6.84,4.96
					c3.79,3.33,6.14,2.83,7.95,5.15c1.51-0.66,2.85,0.98,3.03,1.54c1.75-0.38,1.94,1.4,3.19,2.99c3.84,4.91,10.05,9.6,8.09,8.94
					c-0.35-0.12-5.23-2.71-5.97-3.18c-3.11-0.3-3.85-2.12-5.17-3.25c-2.2-1.88-4.09-3.64-7.14-6.38c-3.97-1.99-9.55-7.03-12.93-6.38
					c1.57,0.88,5.17,3.83,6.5,5.43c0.3,0.37,1.18,1.83,1.44,2.19c6.45,9.18-5.48-3.32-7.39-2.37c-2.12-1.08-0.62,0.33-0.62,0.33
					c0.36,0.78,0.81,0.98,1.17,1.76c2.73,3.68,3.58,8.42,7.48,10.77c1.81,1.33,2.01,1.06,2.01,1.06c0.79,0.88,1.57,1.77,2.35,2.66
					c0,0,1.97-0.34,3.77,1.32c4.84,1.52,10.55,10.2,3.67,3.25c-0.17-0.17-0.77-0.1-1.65-0.41c-0.81-0.29-0.41-0.13-2.32-0.43
					c-0.61-0.1-2.15-0.15-5.28-1.39c-0.66-0.24-1.09-2.49-1.61-2.7c-5.01-2.02-4.07-0.95-5.97-2.45c-2.17-1.66-1.81-1-3.79-2.16
					c-1.99-1.16,1.98,0.67-2.71-4.82c-1.55-1.71-2.98-1.88-4.01-2.61c-2.27-1.61-5.52-5.54-5.42-5.54c-0.3,1.44,3.24,5.06,2.94,6.5
					c0.12,1.28,0.54,5.13,0.66,6.4c0,0,2.23-5.57,1.15-0.75c0.07,8.01-1.06,3.23-1.26,5.65c-0.59,4.56,1.55,6.5,1.8,6.15
					c0.96,0.56,0.66,1.44,1.63,2c4.12,1.98,1.82,2.83-4.32-0.23c0,0-0.92-1.1-2.37-3.43c-1.08-1.83-0.18-2.16-1.08-4.98
					c-0.91-2.83-0.91-2.16-0.91-3.82c0-1.66-0.18-2.99-0.18-2.99c-0.73-0.83,0.03-2.48-0.69-3.31c-0.3-1-2.56-3.63-2.86-4.63
					c-2.08,1.99,2.18,4.09-1.5,6.94c-1.41-0.25-3.21,0.62-4.09,1.26c-2.64,1.92-2.77,3.9-2.77,3.9s-1.63-0.83-4.15,1.66
					c-2.53,2.49-4.15,4.32-4.15,4.32c0.09,0,3.61-8.94,5.25-11.68c0.74-1.25-0.84,5.27-0.13,4.34c0.55-0.54,1.34,0.19,1.75-3.34
					c0.28-2.38,2.16-3.54,2.16-3.6c0.48-0.66,0.96-1.33,1.45-1.99c-0.87,0.31-0.84-0.2-2.7,1.04c-0.06,0.04-1.2-1.08-1.27-1.04
					c-2.17-1,0.9-5.98-1.09-4.49c-1.99,1.49-3.07,6.65-3.07,6.65c-0.78,0.39-2.65,1.77-3.43,2.16c-0.66,0.17-0.24-0.66-0.9-0.5
					c-0.78,0.5-6.44,5.99-7.23,6.49c0,0,5.96-9.47,2.71-6.98c-3.25,2.49-3.97,2.49-3.97,2.49c-1.14,0.55,0.39-0.74-0.76-0.18
					c-2.89,1.83-7.46,6.38-7.46,6.38c0.77-2.2,1.6-3.91,4.97-7.86c5.06-3.32,3.05-4.01,4.31-6c1.27-1.99,4.05-2.62,0.98-2.12
					c-2.12,0.94-2.72,4.01-3.04,3.87c-3.61,3.16-7.67,5.09-11.28,8.24c0,0,3.28-4.78,7-9.32c0.86-1.05,3.54-2.44,4.38-3.47
					c4.52-5.48,4.7-4.16,5.96-6.48c1.26-2.33,1.63-3.49,1.63-3.49s0.9-1.33,2.89-1.5c1.99-0.17,2.35-0.83,3.43-2.99
					c1.08-0.39,2.17-1.33,2.17-1.33c0.66-0.94,1.33-1.89,1.99-2.83c-0.01,0,2.75-2.73,4.94-1.64
					C304.91,449.86,305.49,449.93,305.7,450.14z"/>
				<path class="st9" d="M313.19,451.35c0,0,1.94-0.1,5.31,2.63c-1.37,0.18-3.54-0.32-0.88,1.17c2.99,0.4,4.4,2.2,6.02,1.66
					c1.7,1.69,1.8,1.62,3.43,2.98c0.71,0.59,2.54,1.78,2.77,2.4c-0.39,0.1-1.15,0.97-1.15,0.97c-0.29,0.9-0.15,0.32-0.44,1.22
					c0,0,1.47-1.22,3.1-0.41c2.3-0.43,6.27,3.61,8.08,5.03c-3.92-1.83-6.06-3.38-7.54-2.43c-1.48,0.95-3.81,0.03-3.49,0.11
					c0.33,0.44,1.19,0.52,1.61,0.82c1.27,0.88,2.23,1.44,2.23,1.44c0.49,0.5,3.17,4.49,3.66,4.99c0,0-5.29-4.53-8.39-5.89
					c-3.1-1.36-2.36-1.77-3.84-2.99c-1.48-1.22,2.66-0.82,0-2.85c-2.66-2.04-1.62-0.27-3.84-1.9c-2.21-1.63-5.16-2.04-3.39-0.81
					c1.77,1.22,1.47,1.9,3.39,2.99c1.92,1.08-1.61-0.08-3.53-1.71c-1.92-1.63-2.82-1.82-2.82-1.82s-0.15-1.09-1.77-2.58
					c-1.62-1.49-3.39-4.62-2.51-2.31c0.89,2.31,2.36,2.17,2.36,4.08c0,1.9,0.44,3.26,0.44,3.26c0.74,0.68,1.48,1.36,2.21,2.04
					c0.39,0.77,0.79,1.54,1.18,2.31c0.84,0.41,1.67,0.81,2.51,1.22c1.08,0.45,2.17,0.91,3.25,1.36c0,0,0.15,0.41,1.62,1.36
					c1.48,0.95,1.71,0.73,3.18,1.69c-0.3-1.8,0.38-0.55,0.86-0.26c1.06,0.64,1.9,2.42,1.9,2.42s6.29,8.09,6.07,9.65
					c-0.01-0.38,2.58,2.83,0.92,1.78c-0.75-0.48-5.23-4.39-6.21-5.43c-0.74-0.79-0.67-1.87-1.51-3.21
					c-1.36-2.17-2.09,0.16-2.81-0.18c-2.66-1.36,2.07,1.77,0,1.23c-0.51-0.1-3.72-6.44-4.21-6.85c-1.46-1.22-2.96-2.27-2.96-2.3
					c0,0,0.38,0.79-3.02-2.06c-0.45-0.33-0.58-0.9-0.86-1.06c-0.25-0.16-1.36,0.18-1.41,0.07c0.71-1.18-0.39-1.18-1.61-1.54
					c-0.13-0.34,0.3-0.79,0.2-0.94c-0.29-0.44-2.47-3.08-2.67-3.07c-0.44,0.01,1.48,3.62,1.98,4.77c0.21,0.59-0.1,1.57,0.46,2.14
					c0.13,0.14,0.93,1.18,1.21,1.19c0.4,0.02,0.3-1.01,0.48-0.84c0.26,0.31,0.32,0.91,0.61,1.34c0.3,0.43,0.83,0.7,1.11,1.08
					c1.33,1.9,1.1,2.52,1.1,2.52c-0.02,0.43,0.08,1.57,1.15,3.33c0.13,0.21-0.15,0.63-0.06,0.83c0.38,0.88,0.43,1.63,0.48,1.8
					c1.84,5.59,0.13,1.65-0.12,1.82c-0.42,0.29-2.02-5.33-2.67-6.17c-0.17-0.62-0.25-1.44-0.4-1.92c-1.22-3.89-2.53-3.17-2.77-3.28
					c-0.81-0.33-2.84,3.96-2.84,3.96s-1.24,3.75-0.5,0.9c0.55-2.14,0.7-3.17,0.8-4.22c0.04-0.35,0.74-0.45,0.56-0.93
					c-0.74-1.9,0.35-0.06,0.2-2.23c-0.15-2.17,0.33-0.28,0.18-1.77c-0.15-1.49-1.42-2.11-1.42-3.61c0-1.49,1.33-0.54,0.15-2.04
					c-1.18-1.49-1.48-2.44-1.03-2.99c0.44-0.54-1.56-4.74-1.56-4.74s1.85,0.52,3.18,1.07c1.33,0.54,1.71,0.6,1.71,0.6
					s0.06,1.17,1.98,1.84c0.28,0.1,1.9,0.33,1.91,0.21c0.03-0.45-1.64-0.89-2.35-1.62c-0.86-0.89-1.54-1.9-2.17-1.88
					c-2.07,0.14-4.19-0.65-4.19-0.65c1.67-0.13,1.25-0.71,3.69-0.54C309.5,449.58,313.19,451.62,313.19,451.35z"/>
				<path class="st10" d="M291.57,458.99c0,0-1.28-0.18-2.22,1.5c-0.94,1.69-1.73,3.78-1.73,3.78s0.49-0.32-0.5,0.64
					c-0.99,0.96-3.21,2.14-3.66,3.19c-0.45,1.05,2.72-1.96,3.95-2.37c1.24-0.41,2.22-1.41,3.06-1.91c0.84-0.5-0.69-1.32,0.79-2.23
					c1.48-0.91,0.94-0.59,2.52-1.28c1.58-0.68,2.22-0.46,1.19,1.05c-1.04,1.5-0.64,1.32-1.38,2.14c-0.74,0.82-0.94,0.41-2.27,2.28
					c-1.33,1.87-2.17,1.6-2.57,3.19c-0.39,1.59-1.93,2.46-2.37,3.05c-0.45,0.59,3.71-3.28,5.44-4.55c1.73-1.27,1.43-2,2.82-3.01
					c1.38-1,2.17-1.82,3.16-2.55c0.99-0.73,0.35-1.46,1.98-2.77c1.63-1.32,1.93-2.6,2.42-3.69c0.49-1.1,0.69,2.59-0.1,3.96
					c-0.79,1.37-1.73,1.23-2.22,2.23c-0.49,1-1.28,2.1-1.38,2.32c-0.1,0.23,2.47-2,3.71-2.91c1.24-0.91,1.73-2.36,1.98-3.41
					c0.25-1.05-0.45-1.82-0.1-2.78c0.35-0.96-0.74-1.64,0.25-2.28c0.99-0.64,1.14-1.41,0.39-1.69c-0.74-0.27-2.22,0.41-1.97,0
					c0.24-0.41,0.94-1.36,0.15-1.18c-0.79,0.18-2.37,0.86-3.02,1.73c-0.64,0.87,0.49,0.82-0.35,1.91c-0.84,1.09,0.64,0.95,0,1.59
					c-0.64,0.63-1.43,0.23-2.42,0.5c-0.99,0.27-1.43-0.73-1.53,0.96c-0.1,1.68-0.1,1.78-0.99,2.37c-0.89,0.59-2.17,0.68-3.16,1.32
					c-0.99,0.64-2.08,1.55-2.08,1.55s0.64-1.46,1.33-1.86C291.37,459.36,291.47,459.08,291.57,458.99z"/>
				
					<linearGradient id="SVGID_00000044173288349733146750000016087602373497983396_" gradientUnits="userSpaceOnUse" x1="329.3836" y1="501.5047" x2="327.0587" y2="491.1839">
					<stop  offset="5.435000e-03" style="stop-color:#BCE2F4"/>
					<stop  offset="0.3261" style="stop-color:#E1F2F7"/>
					<stop  offset="1" style="stop-color:#FFFFFF"/>
				</linearGradient>
				<path style="fill:url(#SVGID_00000044173288349733146750000016087602373497983396_);" d="M325.9,495.05c0,0,1.71-0.02,2.5,1.63
					c0.79,1.66,2.18,1.15,2.18,2.1c0,0.95,0.32,2.82,0.83,3.33c0.51,0.51,2.66,3.53,2.66,3.99c0,0.46-0.56-1.3-1.76-1.3
					c-1.2,0-1.98-0.94-1.98-2.18s-1.13-2.36-1.8-3.04c-0.68-0.67-0.12-2.58-1.35-2.58c-1.24,0-1.37-0.96-2.36-1.95
					c-0.99-0.99-1.27-3.43-1.27-3.43S325.9,492.99,325.9,495.05z"/>
				
					<linearGradient id="SVGID_00000025440011393169990950000002793359320638041253_" gradientUnits="userSpaceOnUse" x1="288.0771" y1="490.8578" x2="286.2606" y2="482.7939">
					<stop  offset="5.435000e-03" style="stop-color:#BCE2F4"/>
					<stop  offset="0.3261" style="stop-color:#E1F2F7"/>
					<stop  offset="1" style="stop-color:#FFFFFF"/>
				</linearGradient>
				<path style="fill:url(#SVGID_00000025440011393169990950000002793359320638041253_);" d="M289.22,485.04c0,0-0.8,0.1-1.64,0.94
					c-0.84,0.84-0.53,2.14-0.84,2.46c-0.32,0.32-0.28-0.49-1.13-0.49c-0.84,0-0.7-0.14-1.83,0.98c-1.13,1.13-0.33,1.76-1.13,2.56
					c-0.8,0.8-1.19,1.19-1.87,1.87c-0.68,0.68-0.68,0.68-0.68,0.68s-0.66,2.56-1.32,3.21c-0.66,0.66,2.03-0.66,2.95-1.58
					c0.92-0.92,0.09-0.81,0.77-1.48c0.67-0.68,0.9-1.13,1.35-2.36c0.45-1.24,2-2.79,1.4-2.19c-0.61,0.61,0.98-0.3,0.46,1.67
					c-0.51,1.97-2.1,2.63-0.98,2.63c1.13,0,1.37-0.66,2.04-1.78c0.68-1.12,0-1.91,0.34-2.25c0.34-0.34,0.45-1.24,1.24-2.02
					c0.79-0.79,1.29-1.29,2.25-2.25c0.96-0.95,1.55-1.23,2.25-1.93c0.7-0.7,3.67-3.51,3.67-3.51S288.22,484.04,289.22,485.04z"/>
			</g>
		</g>
	</g>
	<path class="st13" d="M430.75,532.06c-0.44-10.16-2.81-19.83-6.23-29.09c0.07,4.64,0.31,9.37-0.59,13.83
		c-1.18-1.45-2.14-3.75-2.88-5.66c0.1,1.6-0.32,3.88-0.48,5.1c-2.94-8.35-5.69-16.82-8.98-25.01c0.21,9.11-0.41,18.32-1.48,27.18
		c-1.58-3.39-1.82-7.73-2.2-11.47c-2.09,1.79-2.51,5.63-2.44,8.55c-1.39-3.47-2.34-7.99-4.06-10.92
		c-0.35,5.34,0.13,10.87-0.23,16.21c-2.32-6.16-0.83-17.75-4.95-22.05c-0.38,6.43,0.52,14.14-0.99,20.31
		c-0.96-2.64-1.12-5.78-2.07-8.48c-1.04,3.05-1.81,6.94-1.77,10.32c-4.75-3.35-4.31-11.82-6.15-17.36
		c0.07,4.57,0.01,9.15,0.04,13.72c-1.7-7.28-2.81-16.8-6.61-23.12c-1.47,8.43,0.29,18.72-3.21,26.5c-0.68-3.4-0.98-6.91-2.21-10.13
		c-0.52,3.68-0.87,8.18-2.95,11.12c-1.61-2.02-1.85-5.06-2.74-7.54c-0.72,1.92-1.2,4.61-1.78,6.23c-0.35-1.67-1.54-3.33-2.08-4.62
		c-0.58,1.94-1.57,3.91-2.7,5.32c-0.38-0.63-1.67-1.66-1.98-2.38c0.23,1.84-0.51,3.51-0.73,5.17c-1.38-1.77-2.06-4.99-3.1-7.51
		c-0.36,0.89-1.58,2.38-1.81,3.88c-1.97-4.75-3.03-10.22-4.92-15.04c-1.77,5.07-1.16,11.97-2.04,17.51c-1.44-2.18-2-6.36-2.89-8.74
		c-0.02,2.31-0.55,4.77-1.23,6.95c-4.03-1.35-4.75-9.73-7.58-13.26c-0.14,3.16-0.1,6.44-0.05,9.64c-2.83-8.55-5.23-17.36-7.8-26.03
		c0.14,9.25-0.09,18.52,0.05,27.77c-0.65-2.21-1.08-4.54-1.68-6.8c-2.35,2.28-2.1,8.52-5.47,9.29c-1.33-3.25-2.03-6.78-3.63-9.79
		c-1.22,3.07-1.63,6.94-3.72,9.31c-2.25-2.61-2.75-7.2-4.66-10.16c-0.75,3.13-0.84,7.16-1.64,10.65c-2.48-2.26-1.61-7.92-4.03-10.83
		c-0.75,2.91-1.36,6.79-3.5,8.48c-1.03-2.18-1.62-4.76-3.11-6.35c-0.11,2.77-0.29,5.61-1.65,7.95c-0.36-1.43-1.3-2.96-1.58-4.32
		c0.13,2.25-0.67,3-1.52,4.6c-0.26-0.58-1.26-1.85-1.44-2.38c-0.15,0.55-0.14,1.1-0.2,1.67c-2.1-1.6-2.13-5.37-2.61-8.12
		c-0.41,1.91-0.34,5.34-1.42,7.4c-0.31-0.85-0.9-1.66-1.18-2.7c-0.31,1.71-1.25,3.55-2.47,4.58c-0.45-0.92-1.66-2.09-1.95-2.82
		c-0.03,1.6-0.85,2.63-1.04,3.41c-0.62-3.31-1.14-6.56-2.19-9.8c0.25,2.34,0.2,4.7-0.62,6.74c-3.33-6.24-1.97-15.05-5.46-21.37
		c-0.48,7.7,0.23,16.96-1.5,24.3c-1.19-2.81-1.45-6.13-2.31-9.15c-1.63,1.69-1.8,7.47-4.55,7.58c-3.2,0.13-4.29-7.28-5.72-9.81
		c0.17,3.44,0.4,7.33-1.89,9.72c-0.98-1.83-1.73-3.76-2.62-5.64c-0.07,2.15-0.4,4.42-1.53,5.67c-2.25-4.91-3.94-10.73-4.79-16.2
		c0.02,3.53-0.18,31.01-5.57,17.45c-0.25,11.11-5.95,1.97-7.87-2.79c-0.12,1.93-0.87,3.94-1.93,5.05c-0.91-1.84-1.89-3.84-3.13-5.19
		c0.07,2.38-0.47,4.62-2.17,5.88c-2.3-2.07-2.73-5.78-5.06-7.63c0.19,2.17,0.14,4.44-1.11,5.88c-0.96-1.07-2.46-1.79-3.15-3.38
		c0.42,7.24-3.21-0.38-4.11-3.09c-2.08-6.24-3.19-13.31-5.82-19.2c-1.99,8.22,0.98,17.74,0.04,26.05
		c-1.18-3.48-2.21-8.36-4.57-10.98c-1.38,2.89-1.74,7.03-2.65,10.44c-3.21,0.29-4.84-5.96-6.54-8.52c0.38,9.77-1.54,7.5-6.21,2.76
		c0.11,2.21-0.11,4.3-1.1,5.93c-4.57-5.71-4.96-15.9-8.3-22.77c0,4.76,1.17,9.73,1.47,14.35c-2.44-8.27-4.42-17.09-6.64-25.44
		c0.16,10.81,1.83,22.39,1.07,33.01c-0.43-2.57-1.8-5.42-3.54-6.83c-0.2,3.27,0.01,6.65-0.19,9.91c-1.41-2.04-2.07-5.03-4.07-6.37
		c-0.75,2.42-0.42,5.39-0.56,8.07c-0.87,0.51-0.67-0.77-0.95-0.51C159.48,529.14,430.75,532.06,430.75,532.06z"/>
	<path class="st14" d="M160.1,532.06c0.45-10.16,2.86-19.83,6.34-29.09c-0.07,4.64-0.31,9.37,0.6,13.83
		c1.21-1.45,2.18-3.75,2.93-5.66c-0.1,1.6,0.33,3.88,0.49,5.1c3-8.35,5.79-16.82,9.14-25.01c-0.22,9.11,0.42,18.32,1.51,27.18
		c1.61-3.39,1.85-7.73,2.24-11.47c2.13,1.79,2.55,5.63,2.49,8.55c1.42-3.47,2.38-7.99,4.13-10.92c0.36,5.34-0.13,10.87,0.24,16.21
		c2.36-6.16,0.84-17.75,5.04-22.05c0.39,6.43-0.53,14.14,1.01,20.31c0.98-2.64,1.15-5.78,2.1-8.48c1.06,3.05,1.85,6.94,1.8,10.32
		c4.83-3.35,4.39-11.82,6.26-17.36c-0.07,4.57-0.01,9.15-0.04,13.72c1.73-7.28,2.86-16.8,6.73-23.12c1.5,8.43-0.3,18.72,3.27,26.5
		c0.69-3.4,1-6.91,2.25-10.13c0.52,3.68,0.89,8.18,3,11.12c1.64-2.02,1.88-5.06,2.79-7.54c0.73,1.92,1.22,4.61,1.82,6.23
		c0.36-1.67,1.56-3.33,2.12-4.62c0.59,1.94,1.6,3.91,2.75,5.32c0.39-0.63,1.7-1.66,2.01-2.38c-0.24,1.84,0.52,3.51,0.75,5.17
		c1.41-1.77,2.1-4.99,3.15-7.51c0.37,0.89,1.61,2.38,1.84,3.88c2-4.75,3.09-10.22,5.01-15.04c1.8,5.07,1.18,11.97,2.08,17.51
		c1.46-2.18,2.04-6.36,2.94-8.74c0.02,2.31,0.56,4.77,1.26,6.95c4.1-1.35,4.84-9.73,7.72-13.26c0.14,3.16,0.1,6.44,0.05,9.64
		c2.88-8.55,5.32-17.36,7.94-26.03c-0.14,9.25,0.09,18.52-0.05,27.77c0.66-2.21,1.1-4.54,1.71-6.8c2.39,2.28,2.14,8.52,5.57,9.29
		c1.35-3.25,2.07-6.78,3.7-9.79c1.25,3.07,1.65,6.94,3.79,9.31c2.29-2.61,2.8-7.2,4.74-10.16c0.76,3.13,0.86,7.16,1.67,10.65
		c2.53-2.26,1.64-7.92,4.1-10.83c0.76,2.91,1.39,6.79,3.57,8.48c1.05-2.18,1.65-4.76,3.17-6.35c0.11,2.77,0.29,5.61,1.68,7.95
		c0.37-1.43,1.33-2.96,1.61-4.32c-0.13,2.25,0.69,3,1.55,4.6c0.26-0.58,1.28-1.85,1.46-2.38c0.15,0.55,0.14,1.1,0.21,1.67
		c2.13-1.6,2.17-5.37,2.66-8.12c0.41,1.91,0.34,5.34,1.45,7.4c0.31-0.85,0.92-1.66,1.2-2.7c0.32,1.71,1.28,3.55,2.51,4.58
		c0.46-0.92,1.69-2.09,1.99-2.82c0.03,1.6,0.86,2.63,1.05,3.41c0.63-3.31,1.16-6.56,2.23-9.8c-0.25,2.34-0.2,4.7,0.63,6.74
		c3.39-6.24,2.01-15.05,5.56-21.37c0.49,7.7-0.23,16.96,1.53,24.3c1.21-2.81,1.47-6.13,2.35-9.15c1.66,1.69,1.83,7.47,4.63,7.58
		c3.26,0.13,4.37-7.28,5.83-9.81c-0.17,3.44-0.4,7.33,1.92,9.72c1-1.83,1.76-3.76,2.67-5.64c0.07,2.15,0.41,4.42,1.55,5.67
		c2.29-4.91,4.01-10.73,4.88-16.2c-0.02,3.53,0.18,31.01,5.67,17.45c0.26,11.11,6.06,1.97,8.01-2.79c0.12,1.93,0.89,3.94,1.96,5.05
		c0.93-1.84,1.93-3.84,3.18-5.19c-0.07,2.38,0.48,4.62,2.21,5.88c2.34-2.07,2.78-5.78,5.15-7.63c-0.2,2.17-0.14,4.44,1.13,5.88
		c0.97-1.07,2.5-1.79,3.21-3.38c-0.43,7.24,3.26-0.38,4.18-3.09c2.11-6.24,3.25-13.31,5.93-19.2c2.03,8.22-1,17.74-0.04,26.05
		c1.2-3.48,2.25-8.36,4.65-10.98c1.4,2.89,1.77,7.03,2.7,10.44c3.27,0.29,4.93-5.96,6.66-8.52c-0.39,9.77,1.57,7.5,6.32,2.76
		c-0.11,2.21,0.11,4.3,1.12,5.93c4.66-5.71,5.05-15.9,8.46-22.77c0,4.76-1.19,9.73-1.5,14.35c2.49-8.27,4.51-17.09,6.76-25.44
		c-0.16,10.81-1.87,22.39-1.09,33.01c0.44-2.57,1.83-5.42,3.6-6.83c0.2,3.27-0.01,6.65,0.2,9.91c1.44-2.04,2.11-5.03,4.14-6.37
		c0.76,2.42,0.43,5.39,0.57,8.07c0.89,0.51,0.68-0.77,0.96-0.51C436.34,529.14,160.1,532.06,160.1,532.06z"/>
	<rect x="158.32" y="524.16" class="st3" width="284.21" height="19.46"/>
</g>
<g>
	<g>
		<g>
			<g>
				<path class="st15" d="M145.79,529.25l32.76-0.14l32.75-0.07l32.75-0.06l16.38-0.03c5.46,0,10.92-0.07,16.38,0.19
					c0.06,0,0.1,0.06,0.1,0.11c0,0.06-0.05,0.09-0.1,0.1c-5.46,0.27-10.92,0.2-16.38,0.2l-16.38-0.04l-32.75-0.07l-32.75-0.06
					L145.79,529.25z"/>
			</g>
			<path class="st15" d="M148.74,529.25c0,0.23-0.18,0.41-0.41,0.41c-0.23,0-0.42-0.19-0.42-0.41c0-0.23,0.19-0.42,0.42-0.42
				C148.56,528.84,148.74,529.02,148.74,529.25z"/>
			<path class="st15" d="M151.28,529.25c0,0.26-0.21,0.47-0.47,0.47c-0.26,0-0.47-0.21-0.47-0.47c0-0.26,0.21-0.47,0.47-0.47
				C151.08,528.78,151.28,528.99,151.28,529.25z"/>
			<path class="st15" d="M154.29,529.25c0,0.28-0.23,0.51-0.51,0.51c-0.28,0-0.51-0.23-0.51-0.51c0-0.28,0.23-0.51,0.51-0.51
				C154.06,528.74,154.29,528.97,154.29,529.25z"/>
			<path class="st15" d="M157.8,529.25c0,0.33-0.28,0.6-0.62,0.6c-0.35,0-0.62-0.27-0.62-0.6c0-0.33,0.28-0.6,0.62-0.6
				C157.53,528.65,157.8,528.92,157.8,529.25z"/>
			<path class="st15" d="M161.25,529.25c0,0.39-0.33,0.7-0.73,0.7s-0.73-0.31-0.73-0.7c0-0.39,0.33-0.71,0.73-0.71
				S161.25,528.86,161.25,529.25z"/>
			<path class="st15" d="M165.22,529.25c0,0.46-0.39,0.83-0.87,0.83c-0.48,0-0.87-0.37-0.87-0.83c0-0.46,0.39-0.84,0.87-0.84
				C164.83,528.42,165.22,528.79,165.22,529.25z"/>
			<path class="st15" d="M169.77,529.25c0,0.53-0.45,0.96-1,0.96c-0.56,0-1-0.43-1-0.96c0-0.53,0.45-0.97,1-0.97
				C169.32,528.29,169.77,528.72,169.77,529.25z"/>
			<path class="st15" d="M174.83,529.25c0,0.6-0.5,1.08-1.12,1.08c-0.62,0-1.12-0.48-1.12-1.08c0-0.59,0.5-1.08,1.12-1.08
				C174.32,528.17,174.83,528.66,174.83,529.25z"/>
			<path class="st15" d="M180.61,529.25c0,0.7-0.59,1.26-1.31,1.26c-0.72,0-1.31-0.56-1.31-1.26c0-0.7,0.59-1.26,1.31-1.26
				C180.02,527.99,180.61,528.55,180.61,529.25z"/>
			<path class="st15" d="M186.45,529.25c0,0.81-0.68,1.46-1.51,1.46c-0.84,0-1.52-0.65-1.52-1.46c0-0.81,0.68-1.46,1.52-1.46
				C185.78,527.79,186.45,528.44,186.45,529.25z"/>
			<path class="st15" d="M194.13,529.25c0,0.97-0.82,1.76-1.83,1.76c-1.01,0-1.83-0.79-1.83-1.76c0-0.97,0.82-1.76,1.83-1.76
				C193.31,527.49,194.13,528.28,194.13,529.25z"/>
			<path class="st15" d="M203.7,529.25c0,1.17-0.99,2.12-2.21,2.12c-1.22,0-2.21-0.95-2.21-2.12c0-1.17,0.99-2.12,2.21-2.12
				C202.71,527.13,203.7,528.08,203.7,529.25z"/>
			<path class="st15" d="M215.79,529.25c0,1.57-1.33,2.85-2.96,2.85c-1.64,0-2.96-1.28-2.96-2.85c0-1.57,1.33-2.85,2.96-2.85
				C214.47,526.4,215.79,527.68,215.79,529.25z"/>
			<path class="st15" d="M227.4,529.25c0,1.78-1.5,3.23-3.36,3.23c-1.86,0-3.36-1.45-3.36-3.23c0-1.78,1.5-3.23,3.36-3.23
				C225.9,526.02,227.4,527.47,227.4,529.25z"/>
		</g>
	</g>
	<g>
		<g>
			<g>
				<path class="st15" d="M444.36,529.25l-32.76,0.14l-32.75,0.06l-32.75,0.07l-16.38,0.04c-5.46,0-10.92,0.07-16.38-0.2
					c-0.06,0-0.1-0.05-0.1-0.11c0.01-0.05,0.05-0.1,0.1-0.1c5.46-0.27,10.92-0.2,16.38-0.19l16.38,0.03l32.75,0.06l32.75,0.07
					L444.36,529.25z"/>
			</g>
			<path class="st15" d="M441.41,529.25c0,0.23,0.19,0.41,0.42,0.41c0.23,0,0.42-0.19,0.42-0.41c0-0.23-0.19-0.42-0.42-0.42
				C441.6,528.84,441.41,529.02,441.41,529.25z"/>
			<path class="st15" d="M438.87,529.25c0,0.26,0.21,0.47,0.47,0.47c0.26,0,0.47-0.21,0.47-0.47c0-0.26-0.21-0.47-0.47-0.47
				C439.07,528.78,438.87,528.99,438.87,529.25z"/>
			<path class="st15" d="M435.86,529.25c0,0.28,0.23,0.51,0.51,0.51c0.28,0,0.51-0.23,0.51-0.51c0-0.28-0.23-0.51-0.51-0.51
				C436.09,528.74,435.86,528.97,435.86,529.25z"/>
			<path class="st15" d="M432.34,529.25c0,0.33,0.28,0.6,0.62,0.6c0.35,0,0.62-0.27,0.62-0.6c0-0.33-0.28-0.6-0.62-0.6
				C432.62,528.65,432.34,528.92,432.34,529.25z"/>
			<path class="st15" d="M428.9,529.25c0,0.39,0.33,0.7,0.73,0.7c0.4,0,0.73-0.31,0.73-0.7c0-0.39-0.33-0.71-0.73-0.71
				C429.23,528.55,428.9,528.86,428.9,529.25z"/>
			<path class="st15" d="M424.93,529.25c0,0.46,0.39,0.83,0.87,0.83c0.48,0,0.87-0.37,0.87-0.83c0-0.46-0.39-0.84-0.87-0.84
				C425.32,528.42,424.93,528.79,424.93,529.25z"/>
			<path class="st15" d="M420.38,529.25c0,0.53,0.45,0.96,1.01,0.96c0.56,0,1-0.43,1-0.96c0-0.53-0.45-0.97-1-0.97
				C420.83,528.29,420.38,528.72,420.38,529.25z"/>
			<path class="st15" d="M415.32,529.25c0,0.6,0.5,1.08,1.12,1.08c0.62,0,1.12-0.48,1.12-1.08c0-0.59-0.5-1.08-1.12-1.08
				C415.83,528.17,415.32,528.66,415.32,529.25z"/>
			<path class="st15" d="M409.54,529.25c0,0.7,0.59,1.26,1.31,1.26c0.72,0,1.31-0.56,1.31-1.26c0-0.7-0.59-1.26-1.31-1.26
				C410.13,527.99,409.54,528.55,409.54,529.25z"/>
			<path class="st15" d="M403.69,529.25c0,0.81,0.68,1.46,1.52,1.46c0.84,0,1.51-0.65,1.51-1.46c0-0.81-0.67-1.46-1.51-1.46
				C404.37,527.79,403.69,528.44,403.69,529.25z"/>
			<path class="st15" d="M396.02,529.25c0,0.97,0.82,1.76,1.83,1.76c1.01,0,1.83-0.79,1.83-1.76c0-0.97-0.82-1.76-1.83-1.76
				C396.84,527.49,396.02,528.28,396.02,529.25z"/>
			<path class="st15" d="M386.45,529.25c0,1.17,0.99,2.12,2.21,2.12c1.22,0,2.21-0.95,2.21-2.12c0-1.17-0.99-2.12-2.21-2.12
				C387.44,527.13,386.45,528.08,386.45,529.25z"/>
			<path class="st15" d="M374.36,529.25c0,1.57,1.33,2.85,2.97,2.85c1.64,0,2.96-1.28,2.96-2.85c0-1.57-1.32-2.85-2.96-2.85
				C375.68,526.4,374.36,527.68,374.36,529.25z"/>
			<path class="st15" d="M362.75,529.25c0,1.78,1.5,3.23,3.36,3.23c1.86,0,3.36-1.45,3.36-3.23c0-1.78-1.5-3.23-3.36-3.23
				C364.25,526.02,362.75,527.47,362.75,529.25z"/>
		</g>
	</g>
	<g>
		<path class="st15" d="M298.21,529.25c0,1.6-1.35,2.9-3.01,2.9c-1.66,0-3.01-1.3-3.01-2.9c0-1.6,1.35-2.9,3.01-2.9
			C296.86,526.35,298.21,527.65,298.21,529.25z"/>
		<g>
			<path class="st15" d="M292.19,529.25c0,1.25-1.05,2.26-2.36,2.26c-1.3,0-2.35-1.01-2.35-2.26c0-1.25,1.05-2.26,2.35-2.26
				C291.14,526.99,292.19,528,292.19,529.25z"/>
			<path class="st15" d="M287.48,529.25c0,1.06-0.9,1.92-2,1.92c-1.1,0-1.99-0.86-1.99-1.92c0-1.06,0.89-1.92,1.99-1.92
				C286.58,527.33,287.48,528.19,287.48,529.25z"/>
			<path class="st15" d="M283.48,529.25c0,0.9-0.76,1.63-1.7,1.63c-0.94,0-1.7-0.73-1.7-1.63c0-0.9,0.76-1.64,1.7-1.64
				C282.72,527.61,283.48,528.35,283.48,529.25z"/>
			<path class="st15" d="M280.08,529.25c0,0.73-0.61,1.32-1.37,1.32c-0.76,0-1.37-0.59-1.37-1.32c0-0.73,0.61-1.32,1.37-1.32
				C279.47,527.93,280.08,528.52,280.08,529.25z"/>
		</g>
		<g>
			<path class="st15" d="M298.05,529.25c0,1.25,1.05,2.26,2.35,2.26c1.3,0,2.36-1.01,2.36-2.26c0-1.25-1.05-2.26-2.36-2.26
				C299.1,526.99,298.05,528,298.05,529.25z"/>
			<path class="st15" d="M302.76,529.25c0,1.06,0.89,1.92,2,1.92c1.1,0,1.99-0.86,1.99-1.92c0-1.06-0.89-1.92-1.99-1.92
				C303.65,527.33,302.76,528.19,302.76,529.25z"/>
			<path class="st15" d="M306.75,529.25c0,0.9,0.76,1.63,1.7,1.63c0.94,0,1.7-0.73,1.7-1.63c0-0.9-0.76-1.64-1.7-1.64
				C307.51,527.61,306.75,528.35,306.75,529.25z"/>
			<path class="st15" d="M310.16,529.25c0,0.73,0.61,1.32,1.37,1.32c0.76,0,1.38-0.59,1.38-1.32c0-0.73-0.62-1.32-1.38-1.32
				C310.77,527.93,310.16,528.52,310.16,529.25z"/>
		</g>
	</g>
</g>
<path id="SVGID_x5F_00000126318704410935739540000000468185798963146411_x5F_" class="st16" d="M148.49,507.49
	c-0.32-33.6,77.59-61.57,174.02-62.48c96.42-0.91,174.85,25.59,175.17,59.19s-77.59,61.57-174.02,62.48S148.8,541.09,148.49,507.49z
	"/>
<text><textPath  xlink:href="#SVGID_x5F_00000126318704410935739540000000468185798963146411_x5F_" startOffset="36893.375%">
<tspan  style="fill:#36A9E1; font-family:'NEONLEDLightRegular'; font-size:47.0633px;">Interski </tspan></textPath>
</text>
</svg>
